<svg id="coins" xmlns="http://www.w3.org/2000/svg" width="17.035" height="15.272" viewBox="0 0 17.035 15.272">
  <path id="XMLID_148_" d="M10.636,43.762C6.419,43.762,3,42.892,3,42v2.055c0,.892,3.42,1.763,7.636,1.763s7.634-.872,7.636-1.763V42c0,.892-3.419,1.762-7.636,1.762" transform="translate(-2.119 -30.546)" fill="#e4af18"/>
  <path id="XMLID_147_" d="M7.636,32.762C3.419,32.762,0,31.892,0,31v2.055c0,.892,3.42,1.763,7.636,1.763s7.634-.872,7.636-1.763V31c0,.892-3.419,1.762-7.636,1.762" transform="translate(0 -22.776)" fill="#f4bf1a"/>
  <path id="XMLID_146_" d="M13.636,21.762C9.419,21.762,6,20.892,6,20v2.055c0,.892,3.42,1.763,7.636,1.763s7.634-.872,7.636-1.763V20c0,.892-3.419,1.762-7.636,1.762" transform="translate(-4.238 -15.007)" fill="#e4af18"/>
  <path id="XMLID_145_" d="M15.273,4.507c0,.892-3.419,1.724-7.636,1.724S0,5.4,0,4.507,3.419,3,7.636,3s7.636.614,7.636,1.507" transform="translate(0 -3)" fill="#ffd949"/>
  <path id="XMLID_144_" d="M7.636,9.762C3.419,9.762,0,8.892,0,8v2.055c0,.892,3.42,1.763,7.636,1.763s7.634-.872,7.636-1.763V8c0,.892-3.419,1.762-7.636,1.762" transform="translate(0 -6.531)" fill="#f4bf1a"/>
  <path id="XMLID_143_" d="M4,11.074v2.054q.268.1.587.19V11.263q-.32-.091-.587-.189" transform="translate(-2.825 -8.703)" fill="#dca815"/>
  <path id="XMLID_142_" d="M46,11.263v2.055q.32-.091.587-.19V11.074q-.268.1-.587.189" transform="translate(-32.49 -8.703)" fill="#dca815"/>
  <path id="XMLID_141_" d="M9,12.445V14.5q.282.059.587.111V12.556Q9.282,12.5,9,12.445" transform="translate(-6.357 -9.671)" fill="#dca815"/>
  <path id="XMLID_140_" d="M41,12.556v2.055q.305-.053.587-.111V12.445q-.282.059-.587.111" transform="translate(-28.958 -9.671)" fill="#dca815"/>
  <path id="XMLID_139_" d="M14,13.269v2.055c.191.025.387.048.587.068V13.337c-.2-.021-.4-.044-.587-.068" transform="translate(-9.888 -10.253)" fill="#dca815"/>
  <path id="XMLID_138_" d="M36,13.337v2.055c.2-.021.4-.044.587-.068V13.269c-.191.025-.387.048-.587.068" transform="translate(-25.427 -10.253)" fill="#dca815"/>
  <path id="XMLID_137_" d="M19,13.759v2.056q.289.02.587.035V13.794q-.3-.015-.587-.035" transform="translate(-13.42 -10.599)" fill="#dca815"/>
  <path id="XMLID_136_" d="M31,13.794V15.85q.3-.015.587-.035V13.759q-.289.02-.587.035" transform="translate(-21.895 -10.599)" fill="#dca815"/>
  <path id="XMLID_135_" d="M25.294,14l-.294,0V16.05l.294,0,.294,0V13.994l-.294,0" transform="translate(-17.657 -10.765)" fill="#dca815"/>
  <path id="XMLID_134_" d="M10,23.074v2.054q.268.1.587.19V23.263q-.32-.091-.587-.189" transform="translate(-7.063 -17.178)" fill="#c49214"/>
  <path id="XMLID_133_" d="M52,23.263v2.055q.32-.091.587-.19V23.074q-.268.1-.587.189" transform="translate(-36.727 -17.178)" fill="#c49214"/>
  <path id="XMLID_132_" d="M15,24.445V26.5q.282.059.587.111V24.556q-.305-.052-.587-.111" transform="translate(-10.594 -18.147)" fill="#c49214"/>
  <path id="XMLID_131_" d="M47,24.556v2.055q.305-.053.587-.111V24.445q-.282.059-.587.111" transform="translate(-33.196 -18.147)" fill="#c49214"/>
  <path id="XMLID_130_" d="M20,25.27v2.055c.191.025.387.048.587.068V25.338c-.2-.021-.4-.044-.587-.068" transform="translate(-14.126 -18.729)" fill="#c49214"/>
  <path id="XMLID_129_" d="M42,25.338v2.056c.2-.021.4-.044.587-.068V25.27c-.192.025-.387.048-.587.068" transform="translate(-29.665 -18.729)" fill="#c49214"/>
  <path id="XMLID_128_" d="M25,25.759v2.056q.289.02.587.035V25.794q-.3-.015-.587-.035" transform="translate(-17.657 -19.075)" fill="#c49214"/>
  <path id="XMLID_127_" d="M37,25.794V27.85q.3-.015.587-.035V25.759q-.289.02-.587.035" transform="translate(-26.133 -19.075)" fill="#c49214"/>
  <path id="XMLID_126_" d="M31.294,26l-.294,0V28.05l.294,0,.294,0V25.994l-.294,0" transform="translate(-21.895 -19.241)" fill="#c49214"/>
  <path id="XMLID_125_" d="M4,34.074v2.054q.268.1.587.19V34.263q-.32-.091-.587-.189" transform="translate(-2.825 -24.947)" fill="#dca815"/>
  <path id="XMLID_124_" d="M46,34.263v2.055q.32-.091.587-.19V34.074q-.268.1-.587.189" transform="translate(-32.49 -24.947)" fill="#dca815"/>
  <path id="XMLID_123_" d="M9,35.445V37.5q.282.059.587.111V35.556Q9.282,35.5,9,35.445" transform="translate(-6.357 -25.916)" fill="#dca815"/>
  <path id="XMLID_122_" d="M41,35.556v2.055q.305-.053.587-.111V35.445q-.282.059-.587.111" transform="translate(-28.958 -25.916)" fill="#dca815"/>
  <path id="XMLID_121_" d="M14,36.27v2.055c.191.025.387.048.587.068V36.338c-.2-.021-.4-.044-.587-.068" transform="translate(-9.888 -26.499)" fill="#dca815"/>
  <path id="XMLID_120_" d="M36,36.338v2.056c.2-.021.4-.044.587-.068V36.27c-.191.025-.387.048-.587.068" transform="translate(-25.427 -26.499)" fill="#dca815"/>
  <path id="XMLID_119_" d="M19,36.759v2.056q.289.02.587.035V36.794q-.3-.015-.587-.035" transform="translate(-13.42 -26.844)" fill="#dca815"/>
  <path id="XMLID_118_" d="M31,36.794V38.85q.3-.015.587-.035V36.759q-.289.02-.587.035" transform="translate(-21.895 -26.844)" fill="#dca815"/>
  <path id="XMLID_117_" d="M25.294,37l-.294,0V39.05l.294,0,.294,0V36.994l-.294,0" transform="translate(-17.657 -27.01)" fill="#dca815"/>
  <path id="XMLID_116_" d="M7,45.074v2.054q.268.1.587.19V45.263q-.32-.091-.587-.189" transform="translate(-4.944 -32.717)" fill="#c49214"/>
  <path id="XMLID_115_" d="M49,45.263v2.055q.32-.091.587-.19V45.074q-.268.1-.587.189" transform="translate(-34.609 -32.717)" fill="#c49214"/>
  <path id="XMLID_114_" d="M12,46.445V48.5q.282.059.587.111V46.556q-.305-.052-.587-.111" transform="translate(-8.476 -33.685)" fill="#c49214"/>
  <path id="XMLID_113_" d="M44,46.556v2.055q.305-.053.587-.111V46.445q-.282.059-.587.111" transform="translate(-31.077 -33.685)" fill="#c49214"/>
  <path id="XMLID_112_" d="M17,47.27v2.055c.191.025.387.048.587.068V47.338c-.2-.021-.4-.044-.587-.068" transform="translate(-12.007 -34.268)" fill="#c49214"/>
  <path id="XMLID_111_" d="M39,47.338v2.056c.2-.021.4-.044.587-.068V47.27c-.191.025-.387.048-.587.068" transform="translate(-27.546 -34.268)" fill="#c49214"/>
  <path id="XMLID_110_" d="M22,47.759v2.056q.289.02.587.035V47.794q-.3-.015-.587-.035" transform="translate(-15.539 -34.613)" fill="#c49214"/>
  <path id="XMLID_109_" d="M34,47.794V49.85q.3-.015.587-.035V47.759q-.289.02-.587.035" transform="translate(-24.014 -34.613)" fill="#c49214"/>
  <path id="XMLID_108_" d="M28.294,48l-.294,0V50.05l.294,0,.294,0V47.994l-.294,0" transform="translate(-19.776 -34.779)" fill="#c49214"/>
  <path id="XMLID_107_" d="M17.16,39.372c-.834.734-3.833,1.359-7.4,1.359a20.224,20.224,0,0,1-6.566-.9A.486.486,0,0,0,3,40.182c0,.892,3.419,1.724,7.636,1.724s7.636-.832,7.636-1.724c0-.308-.407-.582-1.113-.81" transform="translate(-2.119 -28.689)" fill="#fcc62d"/>
  <path id="XMLID_106_" d="M9.4,29.269c-3.881,0-7.083-.739-7.57-1.552-1.139.258-1.829.6-1.829,1,0,.892,3.419,1.724,7.636,1.724s7.636-.832,7.636-1.724a.355.355,0,0,0-.022-.116,22.97,22.97,0,0,1-5.852.665" transform="translate(0 -20.458)" fill="#ffd949"/>
  <path id="XMLID_105_" d="M19.215,16.549c-.914.711-3.853,1.307-7.34,1.307A23.531,23.531,0,0,1,6.2,17.239.5.5,0,0,0,6,17.6c0,.892,3.419,1.724,7.636,1.724s7.636-.832,7.636-1.724c0-.426-.782-.789-2.058-1.052" transform="translate(-4.238 -12.57)" fill="#fcc62d"/>
</svg>
