<svg xmlns="http://www.w3.org/2000/svg" width="80.02" height="57.715" viewBox="0 0 80.02 57.715">
  <g id="handshake" transform="translate(-0.001 -71.355)">
    <g id="Group_281" data-name="Group 281" transform="translate(0.001 74.89)">
      <g id="Group_280" data-name="Group 280" transform="translate(0 0)">
        <path id="Path_565" data-name="Path 565" d="M79.562,109.615,64.751,94.8a1.564,1.564,0,0,0-2.211,2.211l13.706,13.706-8.014,8.013a.63.63,0,0,1-.89,0L51.518,102.91a.63.63,0,0,1,0-.89L56.9,96.641a1.563,1.563,0,0,0-2.211-2.211l-5.378,5.378a3.761,3.761,0,0,0-.8,4.128l-1.819,1.819H33.974l-2.295-2.295a3.775,3.775,0,0,0,.135-1,3.732,3.732,0,0,0-1.1-2.656l-5.233-5.233a1.564,1.564,0,1,0-2.211,2.211l5.233,5.233a.629.629,0,0,1,0,.89l-.435.435-15.394,15.39-.014.015a.628.628,0,0,1-.871-.017l-8.013-8.013,13.89-13.89a1.563,1.563,0,1,0-2.211-2.211l-15,15a1.564,1.564,0,0,0,0,2.211l9.119,9.119a3.747,3.747,0,0,0,3.958.863l5.133,5.133a5.341,5.341,0,0,0,4.719,7.848h.02a5.349,5.349,0,0,0,5.324,5.343s0,0,0,.007a5.341,5.341,0,0,0,7.853,4.716l1.911,1.911a4.743,4.743,0,0,0,8.093-3.152,4.827,4.827,0,0,0,4.589-4.889s0-.005,0-.008A5.256,5.256,0,0,0,56.1,133.46a5.111,5.111,0,0,0,4.412-7.406l5.128-4.689a3.755,3.755,0,0,0,4.8-.421l9.119-9.119A1.563,1.563,0,0,0,79.562,109.615ZM23.387,131.66a2.217,2.217,0,1,1,2.217-2.217A2.219,2.219,0,0,1,23.387,131.66Zm7.014,4.6q-.1.09-.186.185a2.227,2.227,0,1,1,.186-.185Zm5.261,5.419-.022.02-.022.024a2.214,2.214,0,0,1-3.2-3.061q.1-.09.186-.185a2.214,2.214,0,0,1,3.054,3.2Zm21.687-11.925a1.981,1.981,0,0,1-2.8,0L51.3,126.508a1.563,1.563,0,0,0-2.211,2.211l3.248,3.248h0l.01.01a2.121,2.121,0,0,1-2.958,3.04l-3.127-2.96a1.564,1.564,0,0,0-2.15,2.271l3.405,3.223a1.7,1.7,0,1,1-2.377,2.443l-1.579-1.579a1.563,1.563,0,1,0-2.211,2.211l1.641,1.641a1.616,1.616,0,1,1-2.286,2.286l-1.912-1.912a5.34,5.34,0,0,0-4.7-7.847s0,0,0-.007a5.35,5.35,0,0,0-5.344-5.344h-.02a5.341,5.341,0,0,0-7.852-4.716l-4.886-4.886,13.822-13.822,2.407,2.407a1.564,1.564,0,0,0,1.105.458h2.024l-6.171,6.171a5,5,0,0,0,7.065,7.065l5.234-5.234,5.73.063,10.131,10a1.981,1.981,0,0,1,.01,2.811Zm1.13-6.08-9.524-9.4h0l-.014-.014a1.559,1.559,0,0,0-1.282-.439l-6.8-.075a1.568,1.568,0,0,0-1.123.458l-5.7,5.7a1.869,1.869,0,0,1-2.643-2.643l8.382-8.382h7.567a1.563,1.563,0,0,0,1.105-.458l2.083-2.083L63.38,119.194Z" transform="translate(-0.001 -93.973)" fill="#fff"/>
      </g>
    </g>
    <g id="Group_283" data-name="Group 283" transform="translate(66.947 90.798)">
      <g id="Group_282" data-name="Group 282">
        <circle id="Ellipse_45" data-name="Ellipse 45" cx="1.56" cy="1.56" r="1.56" fill="#fff"/>
      </g>
    </g>
    <g id="Group_285" data-name="Group 285" transform="translate(9.794 90.954)">
      <g id="Group_284" data-name="Group 284" transform="translate(0 0)">
        <circle id="Ellipse_46" data-name="Ellipse 46" cx="1.56" cy="1.56" r="1.56" fill="#fff"/>
      </g>
    </g>
    <g id="Group_287" data-name="Group 287" transform="translate(18.924 71.48)">
      <g id="Group_286" data-name="Group 286" transform="translate(0 0)">
        <circle id="Ellipse_47" data-name="Ellipse 47" cx="1.56" cy="1.56" r="1.56" fill="#fff"/>
      </g>
    </g>
    <g id="Group_289" data-name="Group 289" transform="translate(57.948 71.355)">
      <g id="Group_288" data-name="Group 288" transform="translate(0 0)">
        <circle id="Ellipse_48" data-name="Ellipse 48" cx="1.56" cy="1.56" r="1.56" fill="#fff"/>
      </g>
    </g>
  </g>
</svg>
