<svg xmlns="http://www.w3.org/2000/svg" width="60.003" height="58.002" viewBox="0 0 60.003 58.002">
  <g id="inventory" transform="translate(-2 -4)">
    <rect id="Rectangle_96" data-name="Rectangle 96" width="2" height="2" transform="translate(32.001 56.002)" fill="#fff"/>
    <rect id="Rectangle_97" data-name="Rectangle 97" width="2" height="2" transform="translate(28.001 56.002)" fill="#fff"/>
    <path id="Path_560" data-name="Path 560" d="M58,32h1a1,1,0,0,0,1-1V25a1,1,0,0,0-1-1H50V16h1a1,1,0,0,0,1-1V9a1,1,0,0,0-1-1H13a1,1,0,0,0-1,1v6a1,1,0,0,0,1,1h1V40H5a1,1,0,0,0-1,1v6a1,1,0,0,0,1,1H6V60H2v2H62V60H58Zm0-2H47V26H58ZM39,32h6v4H39Zm0-2V26h6v4ZM26,30V26H37v4ZM50,14H37V10H50ZM29,16h6v4H29Zm0-2V10h6v4ZM14,10H27v4H14Zm2,6H27v5a1,1,0,0,0,1,1h8a1,1,0,0,0,1-1V16H48v8H25a1,1,0,0,0-1,1v6a1,1,0,0,0,1,1h1v8H16ZM27,46V42H38v4Zm-8,2h6v4H19Zm0-2V42h6v4ZM6,42H17v4H6ZM8,60V48h9v5a1,1,0,0,0,1,1h8a1,1,0,0,0,1-1V48h9V60Zm30,0V48h1a1,1,0,0,0,1-1V41a1,1,0,0,0-1-1H28V32h9v5a1,1,0,0,0,1,1h8a1,1,0,0,0,1-1V32h9V60Z" transform="translate(0 0)" fill="#fff"/>
    <rect id="Rectangle_98" data-name="Rectangle 98" width="2" height="2" transform="translate(52.002 56.002)" fill="#fff"/>
    <rect id="Rectangle_99" data-name="Rectangle 99" width="2" height="2" transform="translate(48.002 56.002)" fill="#fff"/>
    <rect id="Rectangle_100" data-name="Rectangle 100" width="2" height="15.001" transform="translate(60.002 38.001)" fill="#fff"/>
    <rect id="Rectangle_101" data-name="Rectangle 101" width="2" height="16.001" transform="translate(10 19.001)" fill="#fff"/>
    <rect id="Rectangle_102" data-name="Rectangle 102" width="22.001" height="2" transform="translate(23.001 4)" fill="#fff"/>
    <rect id="Rectangle_103" data-name="Rectangle 103" width="2" height="2" transform="translate(47.002 4)" fill="#fff"/>
  </g>
</svg>
