<svg xmlns="http://www.w3.org/2000/svg" width="58.69" height="58.002" viewBox="0 0 58.69 58.002">
  <g id="money_1_" data-name="money (1)" transform="translate(0 -3)">
    <g id="Group_178" data-name="Group 178" transform="translate(34.383 32.024)">
      <g id="Group_177" data-name="Group 177">
        <path id="Path_554" data-name="Path 554" d="M304.768,264.472a2.206,2.206,0,1,1,2.522-2.183,1.146,1.146,0,1,0,2.293,0,4.561,4.561,0,0,0-3.668-4.346v-.6a1.146,1.146,0,1,0-2.293,0v.6a4.561,4.561,0,0,0-3.668,4.346,4.659,4.659,0,0,0,4.814,4.475,2.206,2.206,0,1,1-2.522,2.183,1.146,1.146,0,0,0-2.293,0,4.561,4.561,0,0,0,3.668,4.346v.5a1.146,1.146,0,1,0,2.293,0v-.5a4.561,4.561,0,0,0,3.668-4.346A4.659,4.659,0,0,0,304.768,264.472Z" transform="translate(-299.954 -256.201)" fill="#fff"/>
      </g>
    </g>
    <g id="Group_180" data-name="Group 180" transform="translate(44.009 27.964)">
      <g id="Group_179" data-name="Group 179">
        <path id="Path_555" data-name="Path 555" d="M391.668,226.3a14.935,14.935,0,0,0-6.1-5.4,1.146,1.146,0,1,0-.993,2.066,12.62,12.62,0,0,1,5.684,17.285,1.146,1.146,0,1,0,2.024,1.077,14.918,14.918,0,0,0-.614-15.029Z" transform="translate(-383.924 -220.785)" fill="#fff"/>
      </g>
    </g>
    <g id="Group_182" data-name="Group 182" transform="translate(39.776 26.614)">
      <g id="Group_181" data-name="Group 181">
        <path id="Path_556" data-name="Path 556" d="M348.223,209h-.077a1.146,1.146,0,0,0,0,2.293h.072a1.146,1.146,0,0,0,.005-2.293Z" transform="translate(-347 -209.001)" fill="#fff"/>
      </g>
    </g>
    <g id="Group_184" data-name="Group 184" transform="translate(24.302 33.917)">
      <g id="Group_183" data-name="Group 183">
        <path id="Path_557" data-name="Path 557" d="M221.448,291.681a12.62,12.62,0,0,1-5.684-17.285,1.146,1.146,0,1,0-2.024-1.077,14.908,14.908,0,0,0,6.714,20.428,1.146,1.146,0,1,0,.993-2.066Z" transform="translate(-212.002 -272.711)" fill="#fff"/>
      </g>
    </g>
    <g id="Group_186" data-name="Group 186" transform="translate(36.266 54.124)">
      <g id="Group_185" data-name="Group 185">
        <path id="Path_558" data-name="Path 558" d="M317.6,449h-.066a1.146,1.146,0,0,0-.01,2.293h.077a1.146,1.146,0,1,0,0-2.293Z" transform="translate(-316.378 -448.999)" fill="#fff"/>
      </g>
    </g>
    <g id="Group_188" data-name="Group 188" transform="translate(0 3)">
      <g id="Group_187" data-name="Group 187">
        <path id="Path_559" data-name="Path 559" d="M44.408,22.735A5.262,5.262,0,0,0,43.9,21.8h2.984a5.273,5.273,0,0,0,0-10.546H37.7A5.269,5.269,0,0,0,33.357,3H5.273a5.273,5.273,0,0,0,0,10.546h9.179a5.258,5.258,0,0,0,0,5.961h-2.99a5.27,5.27,0,0,0-3.277,9.4,5.263,5.263,0,0,0,0,8.253,5.263,5.263,0,0,0,0,8.253,5.27,5.27,0,0,0,3.277,9.4H24.972A19.483,19.483,0,1,0,44.408,22.735Zm2.475-9.19a2.98,2.98,0,0,1,0,5.961H18.8a2.98,2.98,0,0,1,0-5.961ZM5.273,11.253a2.98,2.98,0,1,1,0-5.961H33.357a2.98,2.98,0,0,1,0,5.961ZM11.463,21.8H39.547a2.979,2.979,0,0,1,1.3.3c-.542-.046-1.09-.07-1.644-.07a19.426,19.426,0,0,0-13.79,5.731H11.463a2.98,2.98,0,1,1,0-5.961Zm0,8.253H23.455a19.431,19.431,0,0,0-2.946,5.961H11.463a2.98,2.98,0,1,1,0-5.961Zm0,8.253h8.519a19.5,19.5,0,0,0-.071,5.961H11.463a2.98,2.98,0,1,1,0-5.961Zm0,14.214a2.98,2.98,0,1,1,0-5.961h8.917a19.41,19.41,0,0,0,2.75,5.961ZM39.2,58.71A17.194,17.194,0,1,1,56.4,41.515,17.214,17.214,0,0,1,39.2,58.71Z" transform="translate(0 -3)" fill="#fff"/>
      </g>
    </g>
  </g>
</svg>
