<svg xmlns="http://www.w3.org/2000/svg" xmlns:xlink="http://www.w3.org/1999/xlink" width="209.746" height="124.268" viewBox="0 0 209.746 124.268">
  <defs>
    <clipPath id="clip-path">
      <path id="Path_529" data-name="Path 529" d="M752.064,293.637,751,269.394l17.662-7.694,1.065,24.243Z" transform="translate(-751 -261.7)"/>
    </clipPath>
    <clipPath id="clip-path-2">
      <path id="Path_531" data-name="Path 531" d="M812.429,253.575l-.629-14.226,10.355-4.549.629,14.275Z" transform="translate(-811.8 -234.8)"/>
    </clipPath>
    <clipPath id="clip-path-3">
      <path id="Path_533" data-name="Path 533" d="M699.329,336.124l-.629-14.275,10.4-4.549.629,14.275Z" transform="translate(-698.7 -317.3)"/>
    </clipPath>
  </defs>
  <g id="Group_391" data-name="Group 391" transform="translate(-843.08 -584.805)">
    <ellipse id="Ellipse_35" data-name="Ellipse 35" cx="89.873" cy="15.327" rx="89.873" ry="15.327" transform="translate(858.08 663.418)" fill="#041627" opacity="0.41"/>
    <g id="Group_224" data-name="Group 224" transform="translate(855.293 584.805)">
      <path id="Path_520" data-name="Path 520" d="M666.685,158.479l-83.568,37.889L499.5,158.479,583.117,126.3Z" transform="translate(-491.758 -126.3)" fill="#a4a4a4"/>
      <path id="Path_521" data-name="Path 521" d="M631.269,209.3l43.6,16.21-42.1,16.114-39.97-17.13Z" transform="translate(-539.911 -169.137)" fill="#666"/>
      <path id="Path_522" data-name="Path 522" d="M583.168,229.666v45.583a3.542,3.542,0,0,1-4.936,3.242L501.39,244.86a3.023,3.023,0,0,1-1.79-2.71V192.6Z" transform="translate(-491.809 -160.518)" fill="#d0d0d0"/>
      <path id="Path_523" data-name="Path 523" d="M672.3,229.666v45.583a3.542,3.542,0,0,0,4.936,3.242L753.352,245.2a4.28,4.28,0,0,0,2.565-3.871V192.6Z" transform="translate(-580.941 -160.518)" fill="#f6f6f6"/>
      <path id="Path_524" data-name="Path 524" d="M755.868,192.3l7.742,9.533-82.02,43.26L672.3,229.366Z" transform="translate(-580.941 -160.363)" fill="#d8b587"/>
      <path id="Path_525" data-name="Path 525" d="M583.117,126.3v40.163l-41.808,16.21L499.5,158.479Z" transform="translate(-491.758 -126.3)" fill="#838383"/>
      <path id="Path_526" data-name="Path 526" d="M491.242,192.8l-7.742,9.533,83.084,40.937,8.275-13.646Z" transform="translate(-483.5 -160.621)" fill="#937855"/>
      <path id="Path_527" data-name="Path 527" d="M659.2,357.084a13.389,13.389,0,0,0,12.872,0L665.539,346.1Z" transform="translate(-574.18 -239.74)" fill="#b99c70"/>
      <g id="Group_140" data-name="Group 140" transform="translate(129.441 65.519)">
        <g id="Group_139" data-name="Group 139">
          <g id="Group_138" data-name="Group 138">
            <g id="Group_137" data-name="Group 137" clip-path="url(#clip-path)">
              <g id="Group_136" data-name="Group 136" transform="translate(0 -0.145)">
                <g id="Group_135" data-name="Group 135">
                  <g id="Group_134" data-name="Group 134">
                    <path id="Path_528" data-name="Path 528" d="M768.517,261.593l-.048.048c-1.4.581-2.758,1.21-4.161,1.79h-.048c-.048,0-.048.048-.1.048h0a5.265,5.265,0,0,0,.048.871v.242a.178.178,0,0,0,.048.145c.049.194.145.242.291.194a.869.869,0,0,1,.774,0,.383.383,0,0,1,.242.387v.194c-.1.387-.145.774-.242,1.161-.1.532-.242,1.065-.339,1.6-.436,1.935-.871,3.871-1.306,5.758-.242,1.161-.532,2.323-.823,3.532-.387,1.645-.774,3.339-1.161,4.984-.048.194-.1.339-.145.532l-.048.145a.169.169,0,0,1-.048.1.047.047,0,0,1-.048-.048.866.866,0,0,1-.242-.339c-.194-.387-.339-.726-.532-1.113-.242-.532-.436-1.016-.677-1.548v-.1c.29-1.5.581-2.952.871-4.452.291-1.548.629-3.1.968-4.6.1-.387.193-.726.29-1.113a1.775,1.775,0,0,1,.581-1.016,3.822,3.822,0,0,1,.726-.581,2.1,2.1,0,0,0,.339-.29.37.37,0,0,0,.1-.242v-.145a2.426,2.426,0,0,1,.1-.581v-.048a.945.945,0,0,1,.048-.339c-.048,0-.048,0-.1.048-1.79.774-3.532,1.548-5.323,2.323-.048,0-.1.048-.1.145a9.429,9.429,0,0,0-.1,1.161c0,.145,0,.194.1.194.145.048.339.145.484.194a.534.534,0,0,1,.242.484v.048a1.816,1.816,0,0,1-.048.532c-.1.726-.242,1.452-.339,2.226-.1.581-.242,1.161-.339,1.742-.048.1-.048.242-.1.339,0,.048,0,.048-.048.048a.047.047,0,0,1-.048-.048c-.1-.145-.145-.29-.242-.435-.484-1.016-.968-2.032-1.4-3.048-.194-.436-.387-.871-.581-1.258v-.048h0a9.676,9.676,0,0,0-.484-1.016l-.048-.1c-.1-.194-.1-.1.048-.339a5.3,5.3,0,0,0,.387-.726,2.509,2.509,0,0,0,.242-1.161v-.387h-.1c-.048,0-.048.048-.1.048-1.645.726-3.242,1.4-4.887,2.129-.048,0-.048.048-.1.048,0,.339.048.629.048.919h0c.048.339.242.339.436.339h.1a.824.824,0,0,1,.339.048c.145.048.29.145.436.194a1.1,1.1,0,0,1,.435.581c.532.968,1.065,2.032,1.549,3.1l1.887,4.21c.339.726.678,1.452.968,2.226a.147.147,0,0,1,0,.194l-.29,1.306c-.145.774-.29,1.548-.484,2.371-.242,1.065-.484,2.178-.726,3.242a4.364,4.364,0,0,1-.968,1.887,4.687,4.687,0,0,1-1.065.919,7.162,7.162,0,0,1-.629.387,1.381,1.381,0,0,0-.532.774c-.1.242-.145.532-.242.823v.048c.049,0,.049-.048.1-.048,5.032-2.178,10.065-4.4,15.049-6.581a.047.047,0,0,0,.048-.048h.048c.048,0,.048-.048.048-.1.049-.29.145-.532.194-.823l.29-1.161c.1-.339.145-.677.242-1.016.145-.484.242-.968.387-1.5.048-.194.1-.339.145-.532l.145-.581c.049-.29.145-.581.194-.871.048-.145.048-.242.1-.387l-.048-.1h-.1c-.145.048-.339.145-.484.194-.048,0-.1.048-.145.048a.762.762,0,0,0-.339.339,5.152,5.152,0,0,0-.339.919c-.145.484-.339,1.016-.532,1.5-.145.339-.29.726-.435,1.065l-.145.29c-.145.242-.242.532-.387.726l-.581.871a2.772,2.772,0,0,1-.532.532c-.242.145-.484.29-.677.387l-.581.29a1.718,1.718,0,0,1-.436.194c-.29.145-.629.29-.919.435a2.362,2.362,0,0,1-.339.145h0c-.145.048-.29.145-.436.194-.435.194-.823.339-1.258.532s-.871.387-1.306.532c-.145.048-.339.145-.484.194a2.553,2.553,0,0,1-.581.145c-.145.048-.145,0-.1-.194.194-1.065.387-2.129.629-3.194.048-.145.048-.242.1-.387.049.048.049.1.1.1.145.29.339.581.484.871.145.339.291.629.436.968l.048.048c.194-.1.435-.194.629-.29.436-.194.823-.387,1.258-.532h0c.048-.29.145-.532.194-.823.145-.581.29-1.161.387-1.79a5.087,5.087,0,0,1,.194-.823c.1-.484.194-.919.339-1.4.048-.194.1-.436.145-.629s.1-.339.145-.532.048-.339.1-.532c.1-.484.242-.968.339-1.452.1-.387.193-.823.29-1.21a13.844,13.844,0,0,1,.339-1.355c.1-.387.145-.774.242-1.161l.145-.726c.048-.29.145-.581.193-.919.1-.339.145-.677.242-1.016s.145-.677.242-1.016a4.035,4.035,0,0,1,.194-.726c.1-.339.145-.677.242-1.016l.145-.581c.1-.387.145-.726.242-1.113.048-.145.048-.242.1-.387a.717.717,0,0,0,.048-.339c.145-.581.29-1.161.484-1.79.048-.145.1-.339.145-.484a5.038,5.038,0,0,1,.193-.484l.291-.435a4.361,4.361,0,0,1,.435-.484,1.106,1.106,0,0,1,.484-.339.4.4,0,0,0,.194-.29c0-.145.048-.29.048-.484a5.25,5.25,0,0,0-.048-.871V261.4c.145.145.1.194.048.194" transform="translate(-751 -261.4)" fill="#b99c70"/>
                  </g>
                </g>
              </g>
            </g>
          </g>
        </g>
      </g>
      <g id="Group_147" data-name="Group 147" transform="translate(158.862 52.502)">
        <g id="Group_146" data-name="Group 146">
          <g id="Group_145" data-name="Group 145">
            <g id="Group_144" data-name="Group 144" clip-path="url(#clip-path-2)">
              <g id="Group_143" data-name="Group 143" transform="translate(0 0.048)">
                <g id="Group_142" data-name="Group 142">
                  <g id="Group_141" data-name="Group 141">
                    <path id="Path_530" data-name="Path 530" d="M822.107,234.9h0c-.871.387-1.645.726-2.468,1.065h-.048l-.048.048h0v.774c0,.1.1.145.145.1.145-.048.339-.1.435,0a.3.3,0,0,1,.145.242v.1c-.048.242-.1.484-.145.677-.048.339-.145.629-.194.968-.242,1.113-.484,2.274-.774,3.387-.145.677-.29,1.355-.484,2.081-.242.968-.435,1.936-.677,2.952a.718.718,0,0,0-.048.339v.1a.047.047,0,0,1-.048.048h-.048c-.048-.048-.1-.145-.145-.194-.1-.194-.193-.436-.29-.629a5.232,5.232,0,0,1-.387-.919v-.048c.193-.871.339-1.742.532-2.613.194-.919.339-1.79.581-2.71.048-.194.1-.436.145-.629a1.6,1.6,0,0,1,.339-.629,2.661,2.661,0,0,1,.435-.339c.048-.048.145-.1.194-.194a.178.178,0,0,0,.048-.145v-.1c0-.1.048-.242.048-.339v-.242H819.3c-1.016.436-2.081.919-3.1,1.355-.048,0-.048.048-.048.1,0,.242-.048.484-.048.677,0,.1,0,.1.048.145l.29.145a.293.293,0,0,1,.145.29v.048a.946.946,0,0,1-.048.339c-.048.436-.145.871-.194,1.307-.048.339-.145.677-.193,1.016,0,.048-.048.145-.048.194h-.048c-.048-.1-.1-.145-.145-.242-.29-.581-.581-1.21-.823-1.79-.1-.242-.242-.484-.339-.726v-.048h0l-.29-.581-.048-.048c-.048-.1-.048-.048,0-.194.1-.145.145-.29.242-.436a1.707,1.707,0,0,0,.145-.677v-.242h-.048l-.048.048c-.968.435-1.887.823-2.855,1.258H811.8v.532h0c0,.194.145.194.242.194h.242c.1.048.194.048.242.1.145.048.194.194.29.339.339.581.629,1.21.919,1.79.387.823.726,1.645,1.113,2.468l.581,1.307v.145c-.048.242-.1.532-.145.774-.1.484-.194.919-.29,1.4l-.435,1.887a2.245,2.245,0,0,1-.581,1.113,2.173,2.173,0,0,1-.629.532,1.467,1.467,0,0,0-.339.242.7.7,0,0,0-.29.436c-.048.145-.1.29-.145.484v.048l.048-.048c2.952-1.307,5.9-2.565,8.855-3.871l.048-.048.048-.048a1.724,1.724,0,0,0,.1-.484,3.56,3.56,0,0,1,.194-.677l.145-.581c.048-.29.145-.581.194-.871a3.084,3.084,0,0,0,.1-.339c.048-.1.048-.242.1-.339a2.06,2.06,0,0,0,.1-.532c0-.1.048-.145.048-.242v-.048h-.048c-.1.048-.194.048-.242.1-.048,0-.048.048-.1.048a.378.378,0,0,0-.193.194,1.729,1.729,0,0,0-.194.532l-.29.871c-.1.194-.194.436-.29.629-.048.048-.048.1-.1.145-.1.145-.145.29-.242.436a4.17,4.17,0,0,1-.339.484.824.824,0,0,1-.29.29,2.7,2.7,0,0,0-.387.242c-.1.048-.242.1-.339.145a1.059,1.059,0,0,0-.242.145,5.679,5.679,0,0,0-.532.242c-.048.048-.145.048-.194.1h0l-.29.145a4.885,4.885,0,0,0-.726.339,5.372,5.372,0,0,0-.774.339.688.688,0,0,1-.29.1c-.1.048-.242.048-.339.1-.1,0-.1,0-.048-.1.1-.629.242-1.258.387-1.887,0-.1.048-.145.048-.242l.048.048c.1.194.194.339.29.532l.29.581h.048c.387-.145.726-.339,1.113-.484h0a1.721,1.721,0,0,0,.1-.484c.1-.339.145-.677.242-1.016.048-.145.048-.339.1-.484.048-.29.145-.532.194-.823.048-.145.048-.242.1-.387.048-.1.048-.194.1-.29,0-.1.048-.194.048-.29.049-.29.145-.581.194-.871l.145-.726c.048-.242.145-.532.194-.774s.1-.435.145-.677c.048-.145.048-.29.1-.387a2.062,2.062,0,0,0,.1-.532l.146-.581c.048-.194.1-.435.145-.629.048-.145.048-.29.1-.436l.145-.581c.048-.1.048-.242.1-.339.048-.194.1-.435.145-.629,0-.048.048-.145.048-.194a.291.291,0,0,1,.048-.194c.1-.339.194-.677.29-1.065.048-.1.048-.194.1-.29s.048-.194.1-.29a1.061,1.061,0,0,1,.145-.242,1.28,1.28,0,0,0,.242-.29,1.013,1.013,0,0,1,.29-.194c.048,0,.1-.1.1-.194V235h0l-.048-.1" transform="translate(-811.8 -234.9)" fill="#b99c70"/>
                  </g>
                </g>
              </g>
            </g>
          </g>
        </g>
      </g>
      <g id="Group_154" data-name="Group 154" transform="translate(104.134 92.424)">
        <g id="Group_153" data-name="Group 153">
          <g id="Group_152" data-name="Group 152">
            <g id="Group_151" data-name="Group 151" clip-path="url(#clip-path-3)">
              <g id="Group_150" data-name="Group 150" transform="translate(0 0.048)">
                <g id="Group_149" data-name="Group 149">
                  <g id="Group_148" data-name="Group 148">
                    <path id="Path_532" data-name="Path 532" d="M709.007,317.4h0c-.871.387-1.645.726-2.468,1.065h-.048l-.048.048h0v.774c0,.1.1.145.145.1.145-.048.339-.1.435,0a.3.3,0,0,1,.145.242v.1c-.048.242-.1.484-.145.677-.048.339-.145.629-.194.968-.242,1.113-.484,2.274-.774,3.387-.145.677-.29,1.355-.484,2.081-.242.968-.436,1.936-.677,2.952a.717.717,0,0,0-.048.339v.1c0,.048,0,.048-.048.048h-.048c-.048-.048-.1-.145-.145-.194-.1-.194-.194-.436-.29-.629a5.227,5.227,0,0,1-.387-.919v-.048c.194-.871.339-1.742.532-2.613.194-.919.339-1.79.581-2.71.048-.194.1-.436.145-.629a1.594,1.594,0,0,1,.339-.629,2.667,2.667,0,0,1,.435-.339c.048-.048.146-.1.194-.194a.178.178,0,0,0,.048-.145v-.1c0-.1.048-.242.048-.339h0v-.194H706.2c-1.065.436-2.081.919-3.145,1.355-.048,0-.048.048-.048.1,0,.242-.048.484-.048.677,0,.1,0,.1.048.145l.29.145a.292.292,0,0,1,.145.29v.048a.946.946,0,0,1-.048.339c-.048.435-.145.871-.194,1.306-.048.339-.145.677-.193,1.016,0,.048-.048.145-.048.194h-.048c-.049-.1-.1-.145-.145-.242-.29-.581-.581-1.21-.823-1.79-.1-.242-.242-.484-.338-.726V323.4h0l-.29-.581v-.048c-.048-.1-.048-.048,0-.194.1-.145.145-.29.242-.436a1.545,1.545,0,0,0,.145-.677v-.242h-.1c-.968.436-1.887.823-2.855,1.258H698.7v.532h0c0,.193.145.193.242.193h.242c.1.048.194.048.242.1.145.048.194.193.29.339.339.581.629,1.21.919,1.839.387.823.726,1.645,1.113,2.468l.581,1.306v.145c-.048.242-.1.532-.145.774-.1.436-.193.919-.29,1.4l-.435,1.887a2.242,2.242,0,0,1-.581,1.113,2.173,2.173,0,0,1-.629.532c-.1.1-.242.145-.339.242a.7.7,0,0,0-.29.436c-.048.145-.1.339-.145.484h0l.048-.049c2.952-1.306,5.9-2.565,8.855-3.871l.048-.048.048-.048a1.718,1.718,0,0,0,.1-.484,3.559,3.559,0,0,1,.194-.677l.145-.581c.048-.29.145-.581.193-.871a3.11,3.11,0,0,0,.1-.339.822.822,0,0,0,.048-.339c.048-.194.1-.339.145-.532,0-.1.048-.145.048-.242v-.048h-.048c-.1.048-.194.048-.242.1-.048,0-.048.048-.1.048a.377.377,0,0,0-.193.194,1.728,1.728,0,0,0-.194.532l-.29.871c-.1.194-.194.435-.29.629-.048.048-.048.1-.1.145-.1.145-.145.29-.242.436a4.171,4.171,0,0,1-.338.484.826.826,0,0,1-.29.29,2.7,2.7,0,0,0-.387.242,1.214,1.214,0,0,0-.339.194,1.058,1.058,0,0,0-.242.145,5.627,5.627,0,0,0-.532.242c-.048.048-.145.048-.194.1h0l-.29.145-.726.29a5.382,5.382,0,0,0-.774.339.688.688,0,0,1-.29.1c-.1.048-.242.048-.339.1-.1,0-.1,0-.048-.1.1-.629.242-1.258.387-1.887,0-.1.048-.145.048-.242l.048.048c.1.194.194.339.29.532l.29.581.048.048c.387-.145.726-.339,1.113-.484h0a1.722,1.722,0,0,0,.1-.484c.1-.339.145-.677.242-1.016.048-.145.048-.339.1-.484.048-.29.145-.532.193-.823.049-.145.049-.242.1-.387a.687.687,0,0,1,.1-.29.717.717,0,0,0,.048-.339c.049-.29.145-.581.194-.871l.145-.726c.048-.29.145-.532.194-.774s.1-.436.145-.677c.048-.145.048-.29.1-.436a2.062,2.062,0,0,0,.1-.532l.145-.581c.048-.194.1-.436.145-.629.049-.145.049-.29.1-.435l.145-.581c.049-.1.049-.242.1-.339.049-.194.1-.436.145-.629,0-.1.048-.145.048-.242a.29.29,0,0,1,.048-.194c.1-.339.194-.677.29-1.065.048-.1.048-.194.1-.29a.689.689,0,0,0,.1-.29.412.412,0,0,1,.145-.242,1.277,1.277,0,0,0,.242-.29,1.015,1.015,0,0,1,.29-.194c.048,0,.1-.1.1-.194V317.4h-.048" transform="translate(-698.7 -317.4)" fill="#b99c70"/>
                  </g>
                </g>
              </g>
            </g>
          </g>
        </g>
      </g>
    </g>
  </g>
</svg>
