<svg xmlns="http://www.w3.org/2000/svg" xmlns:xlink="http://www.w3.org/1999/xlink" width="50" height="50" viewBox="0 0 50 50">
  <defs>
    <filter id="Path_574" x="0" y="0" width="50" height="50" filterUnits="userSpaceOnUse">
      <feOffset dy="2" input="SourceAlpha"/>
      <feGaussianBlur stdDeviation="3" result="blur"/>
      <feFlood flood-opacity="0.102"/>
      <feComposite operator="in" in2="blur"/>
      <feComposite in="SourceGraphic"/>
    </filter>
  </defs>
  <g id="shopping-cart" transform="translate(9 7)">
    <g id="shopping-cart-2" data-name="shopping-cart">
      <g transform="matrix(1, 0, 0, 1, -9, -7)" filter="url(#Path_574)">
        <path id="Path_574-2" data-name="Path 574" d="M9.6,25.6a3.2,3.2,0,1,0,3.2,3.2A3.209,3.209,0,0,0,9.6,25.6ZM0,0V3.2H3.2L8.96,15.36,6.72,19.2a5.685,5.685,0,0,0-.32,1.6A3.209,3.209,0,0,0,9.6,24H28.8V20.8H10.24a.344.344,0,0,1-.32-.32v-.16l1.44-2.72H23.2A2.918,2.918,0,0,0,25.92,16L31.68,5.6A.881.881,0,0,0,32,4.8a1.512,1.512,0,0,0-1.6-1.6H6.72L5.28,0ZM25.6,25.6a3.2,3.2,0,1,0,3.2,3.2A3.209,3.209,0,0,0,25.6,25.6Z" transform="translate(9 7)" fill="#fff"/>
      </g>
    </g>
  </g>
</svg>
