<svg xmlns="http://www.w3.org/2000/svg" xmlns:xlink="http://www.w3.org/1999/xlink" width="250.178" height="259.771" viewBox="0 0 250.178 259.771">
  <defs>
    <filter id="Rectangle_85" x="0" y="0" width="250.178" height="259.771" filterUnits="userSpaceOnUse">
      <feOffset dy="2" input="SourceAlpha"/>
      <feGaussianBlur stdDeviation="6.5" result="blur"/>
      <feFlood flood-opacity="0.102"/>
      <feComposite operator="in" in2="blur"/>
      <feComposite in="SourceGraphic"/>
    </filter>
    <filter id="Rectangle_87" x="0" y="0" width="250.178" height="259.771" filterUnits="userSpaceOnUse">
      <feOffset dy="2" input="SourceAlpha"/>
      <feGaussianBlur stdDeviation="6.5" result="blur-2"/>
      <feFlood flood-opacity="0.102"/>
      <feComposite operator="in" in2="blur-2"/>
      <feComposite in="SourceGraphic"/>
    </filter>
    <filter id="Rectangle_88" x="0" y="0" width="250.178" height="259.771" filterUnits="userSpaceOnUse">
      <feOffset dy="2" input="SourceAlpha"/>
      <feGaussianBlur stdDeviation="6.5" result="blur-3"/>
      <feFlood flood-opacity="0.102"/>
      <feComposite operator="in" in2="blur-3"/>
      <feComposite in="SourceGraphic"/>
    </filter>
    <radialGradient id="radial-gradient" cx="0.5" cy="0.5" r="0.924" gradientTransform="matrix(1.045, 0, 0, 1.045, -0.023, -0.023)" gradientUnits="objectBoundingBox">
      <stop offset="0" stop-color="#00cf07"/>
      <stop offset="1" stop-color="#00cf20"/>
    </radialGradient>
    <filter id="Rectangle_86" x="0" y="0" width="250.178" height="259.771" filterUnits="userSpaceOnUse">
      <feOffset dy="2" input="SourceAlpha"/>
      <feGaussianBlur stdDeviation="6.5" result="blur-4"/>
      <feFlood flood-opacity="0.102"/>
      <feComposite operator="in" in2="blur-4"/>
      <feComposite in="SourceGraphic"/>
    </filter>
    <clipPath id="clip-path">
      <g transform="matrix(1, 0, 0, 1, 0, 0)" filter="url(#Rectangle_85)">
        <rect id="Rectangle_85-2" data-name="Rectangle 85" width="211.177" height="220.771" rx="2" fill="#0d3b66"/>
      </g>
    </clipPath>
    <linearGradient id="linear-gradient" x1="0.633" y1="-0.025" x2="0.506" y2="0.659" gradientUnits="objectBoundingBox">
      <stop offset="0" stop-color="#00ff27"/>
      <stop offset="1" stop-color="#00cf20"/>
    </linearGradient>
    <filter id="Path_516" x="-66.351" y="38.466" width="449.261" height="268.048" filterUnits="userSpaceOnUse">
      <feOffset dy="1" input="SourceAlpha"/>
      <feGaussianBlur stdDeviation="4" result="blur-5"/>
      <feFlood flood-opacity="0.2"/>
      <feComposite operator="in" in2="blur-5"/>
      <feComposite in="SourceGraphic"/>
    </filter>
    <linearGradient id="linear-gradient-2" x1="0.598" y1="-0.579" x2="0.5" y2="0.644" xlink:href="#linear-gradient"/>
    <linearGradient id="linear-gradient-3" x1="0.546" y1="0.954" x2="0.362" y2="0.162" xlink:href="#linear-gradient"/>
  </defs>
  <g id="Group_359" data-name="Group 359" transform="translate(-21282.699 469.647)" opacity="0.5">
    <g transform="matrix(1, 0, 0, 1, 21282.7, -469.65)" filter="url(#Rectangle_86)">
      <rect id="Rectangle_86-2" data-name="Rectangle 86" width="211.177" height="220.771" rx="2" transform="translate(19.5 17.5)" fill="url(#radial-gradient)"/>
    </g>
    <g id="Mask_Group_6" data-name="Mask Group 6" transform="translate(21302.199 -452.147)" clip-path="url(#clip-path)">
      <g transform="matrix(1, 0, 0, 1, -19.5, -17.5)" filter="url(#Path_516)">
        <path id="Path_516-2" data-name="Path 516" d="M.378.006s158.8,136.982,330.9,39.944-28.794,137.237-28.794,137.237L2.755,173.364Z" transform="matrix(0.98, -0.17, 0.17, 0.98, -54.72, 119.09)" fill="url(#linear-gradient)"/>
      </g>
    </g>
    <g id="Mask_Group_7" data-name="Mask Group 7" transform="translate(21302.199 -452.147)" clip-path="url(#clip-path)">
      <path id="Path_517" data-name="Path 517" d="M276,809S401.385,898,539.97,832.558s-24.512,90.752-24.512,90.752H276Z" transform="translate(-299.569 -673.744)" fill="url(#linear-gradient-2)"/>
    </g>
    <g id="Mask_Group_8" data-name="Mask Group 8" transform="translate(21302.199 -452.147)" clip-path="url(#clip-path)">
      <path id="Path_518" data-name="Path 518" d="M136.586,1284.223s98.626-132.905,297.329-98-65.267-78.535-65.267-78.535-228.436,3.357-232.062,3.357-34.809,92.631-30.458,106.055S136.586,1284.223,136.586,1284.223Z" transform="translate(-182.347 -1140.247)" fill="url(#linear-gradient-3)"/>
    </g>
  </g>
</svg>
