<svg xmlns="http://www.w3.org/2000/svg" xmlns:xlink="http://www.w3.org/1999/xlink" width="151.83" height="89.293" viewBox="0 0 151.83 89.293">
  <defs>
    <clipPath id="clip-path">
      <path id="Path_550" data-name="Path 550" d="M108.7,265.432l1.209-12.732,32.049,12.934L140.749,278.4Z" transform="translate(-108.7 -252.7)"/>
    </clipPath>
  </defs>
  <g id="Group_197" data-name="Group 197" transform="translate(13.111)">
    <ellipse id="Ellipse_21" data-name="Ellipse 21" cx="60.915" cy="10.389" rx="60.915" ry="10.389" transform="translate(1.889 53.515)" fill="#041627" opacity="0.41"/>
    <g id="Group_196" data-name="Group 196">
      <path id="Path_535" data-name="Path 535" d="M195.582,144.67l-56.708,25.767L82.2,144.67l56.674-21.87Z" transform="translate(-76.926 -122.8)" fill="#a4a4a4"/>
      <path id="Path_536" data-name="Path 536" d="M199.369,204.1l29.6,11.019-28.555,10.918L173.3,214.414Z" transform="translate(-137.421 -176.788)" fill="#666"/>
      <path id="Path_537" data-name="Path 537" d="M138.808,212.9V243.87a2.394,2.394,0,0,1-3.359,2.184L83.309,223.209a2.02,2.02,0,0,1-1.209-1.848V187.7Z" transform="translate(-76.859 -165.897)" fill="#d0d0d0"/>
      <path id="Path_538" data-name="Path 538" d="M142.369,256.968V273.7L103.5,256.665V239.7Z" transform="translate(-91.07 -200.428)" fill="#c52222"/>
      <path id="Path_539" data-name="Path 539" d="M250.9,212.83V243.8a2.394,2.394,0,0,0,3.359,2.184l51.6-22.609a2.916,2.916,0,0,0,1.713-2.654V187.6Z" transform="translate(-188.952 -165.831)" fill="#f6f6f6"/>
      <path id="Path_540" data-name="Path 540" d="M307.608,187.4l5.241,6.484-55.633,29.4L250.9,212.6Z" transform="translate(-188.952 -165.698)" fill="#c52222"/>
      <path id="Path_541" data-name="Path 541" d="M138.874,122.8v27.312l-28.32,11.019L82.2,144.67Z" transform="translate(-76.926 -122.8)" fill="#838383"/>
      <path id="Path_542" data-name="Path 542" d="M71.774,187.9,66.5,194.384,122.872,222.2l5.577-9.272Z" transform="translate(-66.5 -166.03)" fill="#bf0800"/>
      <g id="Group_159" data-name="Group 159" transform="translate(14.177 43.639)">
        <g id="Group_158" data-name="Group 158">
          <g id="Group_157" data-name="Group 157" clip-path="url(#clip-path)">
            <path id="Path_543" data-name="Path 543" d="M112.556,254.836c-1.142-.47-2.049.336-2.184,1.881a4.118,4.118,0,0,0,1.31,3.393,2.962,2.962,0,0,1,.941,2.385c-.1.974-.6,1.478-1.411,1.142a2.847,2.847,0,0,1-1.31-1.209l-.3.974a3.292,3.292,0,0,0,1.445,1.243c1.411.571,2.217-.47,2.352-1.948a4.14,4.14,0,0,0-1.243-3.46,2.867,2.867,0,0,1-1.008-2.352c.067-.672.437-1.344,1.277-1.008a2.5,2.5,0,0,1,1.075.907l.3-.941a2.8,2.8,0,0,0-1.243-1.008" transform="translate(-109.298 -254.03)" fill="#f6f6f6"/>
            <path id="Path_544" data-name="Path 544" d="M127.61,268.245l-.773-.3-.4,4.3a2.7,2.7,0,0,1-.134.6c-.2.5-.6.941-1.142.739-.705-.3-.873-1.277-.739-2.62l.37-3.863-.773-.3-.4,4.1c-.235,2.452.5,3.393,1.176,3.662a1.211,1.211,0,0,0,1.545-.739h.034l-.067,1.142.672.269c.034-.571.067-1.209.134-1.915l.5-5.073" transform="translate(-118.573 -262.063)" fill="#f6f6f6"/>
            <path id="Path_545" data-name="Path 545" d="M138.652,279.454a2.123,2.123,0,0,1-1.008-1.948v-.537l.1-1.209a2.677,2.677,0,0,1,.1-.5c.235-.907.806-1.31,1.344-1.109.806.336,1.142,1.713,1.008,3.124-.134,1.613-.706,2.52-1.545,2.184m.873-6.215a1.26,1.26,0,0,0-1.646.739h-.034l.067-1.209-.705-.269c-.034.672-.1,1.411-.168,2.284l-.739,7.559.773.3.37-3.8h.034a2.291,2.291,0,0,0,1.209,1.646c1.008.4,2.049-.47,2.318-2.956.2-2.116-.437-3.863-1.478-4.3" transform="translate(-127.028 -265.848)" fill="#f6f6f6"/>
            <path id="Path_546" data-name="Path 546" d="M154.487,279.1c-.538-.2-1.041.2-1.344,1.041h-.034l.1-1.377-.672-.269c-.034.672-.1,1.377-.168,2.184l-.47,4.8.773.3.37-3.729c.034-.2.067-.4.1-.571.2-.907.638-1.444,1.209-1.209.1.034.168.1.269.134l.1-1.209c-.1-.034-.134-.067-.235-.1" transform="translate(-137.387 -269.833)" fill="#f6f6f6"/>
            <path id="Path_547" data-name="Path 547" d="M160.834,285.543c.134-.84.6-1.915,1.377-1.579.873.37.974,1.68.873,2.486l-2.251-.907m1.545-2.452c-1.243-.5-2.15.84-2.352,2.956s.437,3.83,1.747,4.367a2.172,2.172,0,0,0,1.478.134l-.034-.974a1.619,1.619,0,0,1-1.209-.134c-.773-.3-1.377-1.277-1.243-3.024l2.99,1.209c.034-.134.067-.336.1-.571.1-1.243-.067-3.393-1.478-3.964" transform="translate(-142.76 -272.811)" fill="#f6f6f6"/>
            <path id="Path_548" data-name="Path 548" d="M178.242,288.647a.974.974,0,0,0-1.008.1,1.8,1.8,0,0,0-.571.706h-.034a2.222,2.222,0,0,0-1.075-1.881c-.705-.3-1.176.168-1.478.739h-.034l.067-1.142-.672-.269c-.034.6-.067,1.176-.134,1.915l-.5,5.106.773.3.4-4.2a3.2,3.2,0,0,1,.134-.6c.168-.571.6-1.075,1.075-.873.6.235.806,1.176.706,2.284l-.4,4.2.773.3.4-4.334a2.694,2.694,0,0,1,.134-.6c.2-.571.6-.974,1.041-.773.638.269.84,1.176.705,2.52l-.37,3.964.773.3.4-4.1c.235-2.486-.571-3.427-1.109-3.662" transform="translate(-151.266 -275.411)" fill="#f6f6f6"/>
            <path id="Path_549" data-name="Path 549" d="M195.434,299.543c.134-.84.6-1.915,1.377-1.579.873.37.974,1.68.873,2.486l-2.251-.907m1.545-2.452c-1.243-.5-2.15.84-2.352,2.956s.437,3.83,1.747,4.367a2.172,2.172,0,0,0,1.478.134l-.034-.974a1.619,1.619,0,0,1-1.209-.134c-.773-.3-1.377-1.277-1.243-3.024l2.99,1.209a2.411,2.411,0,0,0,.067-.571c.134-1.243-.034-3.393-1.445-3.964" transform="translate(-165.736 -282.107)" fill="#f6f6f6"/>
          </g>
        </g>
      </g>
      <path id="Path_551" data-name="Path 551" d="M238.1,345.392a9.007,9.007,0,0,0,8.735,0L242.4,337.9Z" transform="translate(-180.452 -265.638)" fill="#c52222"/>
    </g>
  </g>
</svg>
