<svg xmlns="http://www.w3.org/2000/svg" width="17.377" height="23.695" viewBox="0 0 17.377 23.695">
  <path id="Path_566" data-name="Path 566" d="M38.208,22.088a2.152,2.152,0,0,0,2.17,1.608h8.215a2.152,2.152,0,0,0,2.17-1.608L52.384,6.319h-15.8Zm9.436-13.4a.79.79,0,0,1,1.58,0l-.79,11.848a.79.79,0,1,1-1.58,0Zm-3.949,0a.79.79,0,1,1,1.58,0V20.536a.79.79,0,1,1-1.58,0ZM40.536,7.9a.79.79,0,0,1,.79.79l.79,11.848a.79.79,0,0,1-1.58,0l-.79-11.848A.79.79,0,0,1,40.536,7.9ZM51.91,3.161H48.435V1.58c0-1.2-.388-1.58-1.58-1.58H42.116a1.382,1.382,0,0,0-1.58,1.58V3.161H37.061A1.226,1.226,0,0,0,35.8,4.346a1.226,1.226,0,0,0,1.264,1.185H51.91a1.226,1.226,0,0,0,1.264-1.185A1.226,1.226,0,0,0,51.91,3.161Zm-5.055,0H42.116V1.58h4.739V3.161Z" transform="translate(-35.797)" fill="#fff" fill-rule="evenodd"/>
</svg>
