<svg xmlns="http://www.w3.org/2000/svg" width="27.867" height="38" viewBox="0 0 27.867 38">
  <g id="waste-bin" transform="translate(-35.797)">
    <path id="Path_566" data-name="Path 566" d="M39.664,35.421A3.451,3.451,0,0,0,43.144,38H56.317A3.451,3.451,0,0,0,59.8,35.421l2.6-25.287H37.064ZM54.8,13.933a1.267,1.267,0,0,1,2.533,0l-1.267,19a1.267,1.267,0,1,1-2.533,0Zm-6.333,0a1.267,1.267,0,1,1,2.533,0v19a1.267,1.267,0,1,1-2.533,0ZM43.4,12.667a1.267,1.267,0,0,1,1.267,1.267l1.267,19a1.267,1.267,0,0,1-2.533,0l-1.267-19A1.267,1.267,0,0,1,43.4,12.667Zm18.24-7.6H56.064V2.533C56.064.612,55.442,0,53.53,0h-7.6A2.216,2.216,0,0,0,43.4,2.533V5.069H37.824A1.966,1.966,0,0,0,35.8,6.97a1.966,1.966,0,0,0,2.027,1.9H61.637a1.966,1.966,0,0,0,2.027-1.9A1.966,1.966,0,0,0,61.637,5.069Zm-8.107,0h-7.6V2.533h7.6V5.069Z" transform="translate(0)" fill="#fff" fill-rule="evenodd"/>
  </g>
</svg>
