<svg xmlns="http://www.w3.org/2000/svg" width="24.469" height="28.766" viewBox="0 0 24.469 28.766">
  <g id="avatar" transform="translate(0 0)" opacity="0.5">
    <g id="Group_30" data-name="Group 30" transform="translate(0)">
      <path id="Path_36" data-name="Path 36" d="M143.195,15.5h.191a5.5,5.5,0,0,0,4.2-1.817c2.293-2.585,1.912-7.017,1.87-7.44-.149-3.175-1.65-4.694-2.889-5.4a6.623,6.623,0,0,0-3.2-.84h-.1a6.633,6.633,0,0,0-3.2.816c-1.251.709-2.776,2.228-2.925,5.427-.042.423-.423,4.855,1.87,7.44A5.475,5.475,0,0,0,143.195,15.5Zm-4.474-9.108c0-.018.006-.036.006-.048.2-4.271,3.229-4.73,4.527-4.73h.072c1.608.036,4.343.691,4.527,4.73a.117.117,0,0,0,.006.048c.006.042.423,4.092-1.471,6.225a3.9,3.9,0,0,1-3.068,1.275h-.06a3.892,3.892,0,0,1-3.062-1.275C138.31,10.5,138.715,6.428,138.721,6.392Z" transform="translate(-131.065)" fill="#fff"/>
      <path id="Path_37" data-name="Path 37" d="M60.54,266.652v-.018c0-.048-.006-.1-.006-.149-.036-1.179-.113-3.938-2.7-4.819l-.06-.018a17.19,17.19,0,0,1-4.944-2.252.8.8,0,1,0-.923,1.316,18.554,18.554,0,0,0,5.439,2.484c1.388.494,1.543,1.978,1.585,3.336a1.194,1.194,0,0,0,.006.149,10.812,10.812,0,0,1-.125,1.841,21.922,21.922,0,0,1-10.5,2.442A22.05,22.05,0,0,1,37.8,268.517a10.237,10.237,0,0,1-.125-1.841c0-.048.006-.1.006-.149.042-1.358.2-2.841,1.585-3.336a18.726,18.726,0,0,0,5.439-2.484.8.8,0,0,0-.923-1.316,17,17,0,0,1-4.944,2.252c-.024.006-.042.012-.06.018-2.585.888-2.663,3.646-2.7,4.819a1.2,1.2,0,0,1-.006.149v.018a9.135,9.135,0,0,0,.3,2.7.764.764,0,0,0,.31.375c.179.119,4.462,2.847,11.628,2.847a22.6,22.6,0,0,0,11.628-2.847.8.8,0,0,0,.31-.375A9.584,9.584,0,0,0,60.54,266.652Z" transform="translate(-36.073 -243.801)" fill="#fff"/>
    </g>
  </g>
</svg>
