<svg xmlns="http://www.w3.org/2000/svg" width="23.815" height="25.391" viewBox="0 0 23.815 25.391"><defs><style>.a{fill:#fff;stroke:#fff;stroke-width:0.3px;}</style></defs><g transform="translate(-15.882 0.155)"><g transform="translate(16.032 -0.001)"><g transform="translate(0)"><path class="a" d="M39.339,5.535,27.949.036a.368.368,0,0,0-.32,0l-11.39,5.5a.367.367,0,0,0-.208.331V19.219a.367.367,0,0,0,.208.331l11.39,5.5a.367.367,0,0,0,.32,0l11.39-5.5a.367.367,0,0,0,.208-.331V5.866A.368.368,0,0,0,39.339,5.535ZM27.789.775,38.334,5.866,35.277,7.341a.364.364,0,0,0-.062-.039L24.742,2.246ZM23.912,2.662,34.442,7.745,32.285,8.786,21.76,3.7Zm10.776,5.78V12.29l-2.014.972V9.414Zm4.124,10.547L28.157,24.132V11.595L30.7,10.368a.367.367,0,1,0-.32-.662l-2.589,1.25-1.019-.492a.367.367,0,1,0-.32.662l.971.469V24.132L16.767,18.989V6.451l8.114,3.917a.367.367,0,0,0,.32-.662L17.245,5.866,20.9,4.1,31.934,9.432l.005.006v4.41a.367.367,0,0,0,.527.331l2.749-1.327a.367.367,0,0,0,.208-.331V8.087l3.389-1.636V18.989Z" transform="translate(-16.032 0.001)"/></g></g><g transform="translate(17.601 16.72)"><g transform="translate(0)"><path class="a" d="M50.247,342.1l-1.672-.807a.367.367,0,1,0-.32.662l1.671.807a.367.367,0,0,0,.32-.662Z" transform="translate(-48.048 -341.261)"/></g></g><g transform="translate(17.603 14.977)"><g transform="translate(0)"><path class="a" d="M51.831,307.275l-3.208-1.548a.367.367,0,1,0-.32.662l3.208,1.548a.367.367,0,0,0,.319-.662Z" transform="translate(-48.096 -305.69)"/></g></g></g></svg>