<svg xmlns="http://www.w3.org/2000/svg" xmlns:xlink="http://www.w3.org/1999/xlink" width="209.746" height="124.61" viewBox="0 0 209.746 124.61">
  <defs>
    <clipPath id="clip-path">
      <path id="Path_550" data-name="Path 550" d="M108.7,271.485l1.784-18.785,47.285,19.083-1.784,18.835Z" transform="translate(-108.7 -252.7)"/>
    </clipPath>
  </defs>
  <g id="Group_389" data-name="Group 389" transform="translate(-1212.326 -584.463)">
    <ellipse id="Ellipse_43" data-name="Ellipse 43" cx="89.873" cy="15.327" rx="89.873" ry="15.327" transform="translate(1227.326 663.418)" fill="#041627" opacity="0.41"/>
    <g id="Group_266" data-name="Group 266" transform="translate(1225 584.463)">
      <path id="Path_535" data-name="Path 535" d="M249.482,155.067l-83.666,38.016L82.2,155.067,165.816,122.8Z" transform="translate(-74.418 -122.8)" fill="#a4a4a4"/>
      <path id="Path_536" data-name="Path 536" d="M211.762,204.1l43.667,16.257L213.3,236.466l-40-17.149Z" transform="translate(-120.365 -163.804)" fill="#666"/>
      <path id="Path_537" data-name="Path 537" d="M165.766,224.874v45.7a3.532,3.532,0,0,1-4.956,3.222l-76.925-33.7a2.98,2.98,0,0,1-1.784-2.726V187.7Z" transform="translate(-74.368 -155.532)" fill="#d0d0d0"/>
      <path id="Path_538" data-name="Path 538" d="M160.847,265.176V289.86L103.5,264.73V239.7Z" transform="translate(-85.161 -181.759)" fill="#c52222"/>
      <path id="Path_539" data-name="Path 539" d="M250.9,224.823v45.7a3.532,3.532,0,0,0,4.956,3.222l76.132-33.357a4.3,4.3,0,0,0,2.528-3.916V187.6Z" transform="translate(-159.502 -155.482)" fill="#f6f6f6"/>
      <path id="Path_540" data-name="Path 540" d="M334.566,187.4l7.732,9.566-82.08,43.369L250.9,224.574Z" transform="translate(-159.502 -155.381)" fill="#c52222"/>
      <path id="Path_541" data-name="Path 541" d="M165.816,122.8v40.3l-41.783,16.257L82.2,155.067Z" transform="translate(-74.418 -122.8)" fill="#838383"/>
      <path id="Path_542" data-name="Path 542" d="M74.282,187.9,66.5,197.466l83.17,41.04,8.228-13.68Z" transform="translate(-66.5 -155.633)" fill="#bf0800"/>
      <g id="Group_159" data-name="Group 159" transform="translate(20.916 64.385)">
        <g id="Group_158" data-name="Group 158">
          <g id="Group_157" data-name="Group 157" clip-path="url(#clip-path)">
            <path id="Path_543" data-name="Path 543" d="M113.962,254.9c-1.685-.694-3.023.5-3.222,2.776a6.076,6.076,0,0,0,1.933,5.006,4.37,4.37,0,0,1,1.388,3.519c-.149,1.437-.892,2.181-2.082,1.685a4.2,4.2,0,0,1-1.933-1.784l-.446,1.437a4.857,4.857,0,0,0,2.131,1.834c2.082.843,3.271-.694,3.47-2.875a6.108,6.108,0,0,0-1.834-5.105,4.23,4.23,0,0,1-1.487-3.47c.1-.991.644-1.983,1.883-1.487a3.69,3.69,0,0,1,1.586,1.338l.446-1.388a4.135,4.135,0,0,0-1.834-1.487" transform="translate(-109.154 -253.71)" fill="#f6f6f6"/>
            <path id="Path_544" data-name="Path 544" d="M129.531,268.931l-1.14-.446-.595,6.344a3.978,3.978,0,0,1-.2.892c-.3.743-.892,1.388-1.685,1.09-1.041-.446-1.289-1.883-1.09-3.866l.545-5.7-1.14-.446-.595,6.047c-.347,3.618.743,5.006,1.735,5.4a1.786,1.786,0,0,0,2.28-1.09h.05l-.1,1.685.991.4c.05-.843.1-1.784.2-2.825l.743-7.484" transform="translate(-116.198 -259.811)" fill="#f6f6f6"/>
            <path id="Path_545" data-name="Path 545" d="M139.77,282.76a3.132,3.132,0,0,1-1.487-2.875v-.793l.149-1.784a3.952,3.952,0,0,1,.149-.743c.347-1.338,1.19-1.933,1.983-1.636,1.19.5,1.685,2.528,1.487,4.61-.2,2.379-1.041,3.717-2.28,3.222m1.289-9.17a1.859,1.859,0,0,0-2.429,1.09h-.05l.1-1.784-1.041-.4c-.05.991-.149,2.082-.248,3.37l-1.09,11.152,1.14.446.545-5.6h.05a3.38,3.38,0,0,0,1.784,2.429c1.487.595,3.023-.694,3.42-4.362.3-3.123-.644-5.7-2.181-6.344" transform="translate(-122.62 -262.686)" fill="#f6f6f6"/>
            <path id="Path_546" data-name="Path 546" d="M155.716,279.392c-.793-.3-1.537.3-1.983,1.536h-.05l.149-2.032-.991-.4c-.05.991-.149,2.032-.248,3.222l-.694,7.088,1.14.446.545-5.5c.05-.3.1-.595.149-.843.3-1.338.942-2.131,1.784-1.784.149.05.248.149.4.2l.149-1.784c-.149-.05-.2-.1-.347-.149" transform="translate(-130.488 -265.712)" fill="#f6f6f6"/>
            <path id="Path_547" data-name="Path 547" d="M161.235,286.759c.2-1.239.892-2.825,2.032-2.33,1.289.545,1.437,2.478,1.289,3.668l-3.321-1.338m2.28-3.618c-1.834-.744-3.172,1.239-3.469,4.362s.644,5.65,2.577,6.443a3.205,3.205,0,0,0,2.181.2l-.05-1.437a2.389,2.389,0,0,1-1.784-.2c-1.14-.446-2.032-1.883-1.834-4.461l4.411,1.784c.05-.2.1-.5.149-.843.149-1.834-.1-5.006-2.181-5.849" transform="translate(-134.569 -267.974)" fill="#f6f6f6"/>
            <path id="Path_548" data-name="Path 548" d="M180.829,289.477a1.438,1.438,0,0,0-1.487.149,2.66,2.66,0,0,0-.843,1.041h-.05a3.278,3.278,0,0,0-1.586-2.776c-1.041-.446-1.735.248-2.181,1.09h-.05l.1-1.685-.991-.4c-.05.892-.1,1.735-.2,2.825l-.743,7.534,1.14.446.595-6.2a4.718,4.718,0,0,1,.2-.892c.248-.843.892-1.586,1.586-1.289.892.347,1.19,1.735,1.041,3.37l-.595,6.2,1.14.446.595-6.394a3.977,3.977,0,0,1,.2-.892c.3-.843.892-1.437,1.537-1.14.942.4,1.239,1.735,1.041,3.717l-.545,5.849,1.14.446.595-6.047c.347-3.668-.843-5.056-1.636-5.4" transform="translate(-141.029 -269.949)" fill="#f6f6f6"/>
            <path id="Path_549" data-name="Path 549" d="M195.835,300.759c.2-1.239.892-2.825,2.032-2.33,1.289.545,1.437,2.478,1.289,3.668l-3.321-1.338m2.28-3.618c-1.834-.743-3.172,1.239-3.47,4.362s.644,5.65,2.577,6.443a3.205,3.205,0,0,0,2.181.2l-.05-1.437a2.388,2.388,0,0,1-1.784-.2c-1.14-.446-2.032-1.883-1.834-4.461l4.411,1.784a3.558,3.558,0,0,0,.1-.843c.2-1.834-.05-5.006-2.131-5.849" transform="translate(-152.019 -275.035)" fill="#f6f6f6"/>
          </g>
        </g>
      </g>
      <path id="Path_551" data-name="Path 551" d="M238.1,348.953a13.289,13.289,0,0,0,12.887,0L244.444,337.9Z" transform="translate(-153.047 -231.286)" fill="#c52222"/>
    </g>
  </g>
</svg>
