<svg xmlns="http://www.w3.org/2000/svg" width="32.274" height="23.053" viewBox="0 0 32.274 23.053">
  <g id="close-envelope" opacity="0.5">
    <g id="Group_48" data-name="Group 48" transform="translate(0 0)">
      <path id="Path_63" data-name="Path 63" d="M15.724,10.979,11.732,7.484.316,17.27a2.337,2.337,0,0,0,1.593.625H29.54a2.319,2.319,0,0,0,1.586-.625L19.717,7.484Z" transform="translate(0.412 5.158)" fill="#fff"/>
      <path id="Path_64" data-name="Path 64" d="M31.13,2.625A2.322,2.322,0,0,0,29.537,2H1.906a2.312,2.312,0,0,0-1.588.629l15.4,13.2Z" transform="translate(0.415 -2)" fill="#fff"/>
      <path id="Path_65" data-name="Path 65" d="M0,2.878V22.03l11.141-9.468Z" transform="translate(0 -0.854)" fill="#fff"/>
      <path id="Path_66" data-name="Path 66" d="M9.167,12.566l11.141,9.468V2.875Z" transform="translate(11.965 -0.858)" fill="#fff"/>
    </g>
  </g>
</svg>
