<svg xmlns="http://www.w3.org/2000/svg" width="25.231" height="25.229" viewBox="0 0 25.231 25.229">
  <path id="pen" d="M22.333.986a3.475,3.475,0,0,0-4.91,0L16.194,2.222,3.112,15.3l-.028.028c-.007.007-.007.014-.014.014-.014.021-.035.041-.048.062s-.007.007-.007.014-.021.035-.035.056-.007.014-.014.021-.014.035-.021.056-.007.007-.007.014L.036,24.29A.683.683,0,0,0,.2,25a.7.7,0,0,0,.493.2.819.819,0,0,0,.222-.035l8.722-2.91c.007,0,.007,0,.014-.007a.251.251,0,0,0,.062-.028.025.025,0,0,0,.014-.007c.021-.014.048-.028.069-.042s.042-.035.063-.048.014-.007.014-.014.021-.014.028-.028L24.215,7.77a3.474,3.474,0,0,0,0-4.909ZM9.417,20.623,4.584,15.791l12.1-12.1,4.833,4.833ZM3.9,17.075,8.126,21.3l-6.34,2.111ZM23.236,6.8l-.736.743L17.666,2.708l.743-.743a2.083,2.083,0,0,1,2.944,0l1.889,1.889A2.09,2.09,0,0,1,23.236,6.8Zm0,0" transform="translate(0.001 0.029)" fill="#fff" opacity="0.5"/>
</svg>
