<svg id="purse" xmlns="http://www.w3.org/2000/svg" width="33.599" height="29.858" viewBox="0 0 33.599 29.858">
  <g id="Group_171" data-name="Group 171">
    <g id="Group_170" data-name="Group 170">
      <path id="Path_552" data-name="Path 552" d="M32.123,40.967h-.492V34.241a3.121,3.121,0,0,0-3.117-3.117H15L5.877,28.518l-.008,0-.008,0-.016,0-.025,0-.023,0-.027,0H5.7l-.028,0-.019,0-.028.006-.017,0-.028.009-.016.006-.028.012-.015.007-.027.015-.014.008-.026.017-.013.01-.024.019-.013.012-.021.021-.012.014-.018.022-.012.017-.015.022-.012.02-.012.022-.01.022-.009.022-.008.024-.005.016,0,.008,0,.008L4.7,31.123H3.117A3.121,3.121,0,0,0,0,34.23s0,.007,0,.01V51.3a.492.492,0,0,0,.984,0V36.511a3.105,3.105,0,0,0,2.133.847h25.4a2.135,2.135,0,0,1,2.131,2.133v3.445H25.231l-.043,0-.046.006h-.007l-.038.01-.008,0-.033.012-.012,0-.027.012L25,42.994l-.02.012-.022.013-.014.01-.025.019-.01.009-.025.023-.014.015-.019.021q-.015.019-.029.039h0L22.2,47.093a.484.484,0,0,0-.046.087c0,.011-.008.023-.012.034l0,.01c0,.012-.006.024-.009.037l0,.01c0,.011,0,.022,0,.033s0,.009,0,.014,0,.018,0,.027,0,.014,0,.021,0,.014,0,.02,0,.019,0,.028,0,.009,0,.014,0,.023.005.034l0,.009c0,.012.006.025.009.037l0,.01c0,.011.007.023.012.034a.49.49,0,0,0,.046.087l2.625,3.937h0a.509.509,0,0,0,.034.045l.012.014.026.026.016.015.03.023.014.01a.492.492,0,0,0,.046.028l.012.006.039.017.015.006.038.012.016,0,.041.007.015,0,.052,0h5.418v3.446a2.135,2.135,0,0,1-2.133,2.133H3.118A2.135,2.135,0,0,1,.985,55.241s0-.005,0-.008V53.272a.492.492,0,0,0-.984,0v1.969c0,.005,0,.01,0,.015a3.12,3.12,0,0,0,3.117,3.1h25.4a3.121,3.121,0,0,0,3.117-3.117h0V51.8h.492A1.478,1.478,0,0,0,33.6,50.319V42.444A1.478,1.478,0,0,0,32.123,40.967ZM6.1,29.6l8.685,2.481h0L20.6,33.749H5.06Zm24.55,7.616a3.1,3.1,0,0,0-2.133-.847H3.117a2.133,2.133,0,1,1,0-4.266H4.456l-.41,1.641H3.118a.492.492,0,1,0,0,.984H27.857a.492.492,0,0,0,0-.984H24.186l-5.744-1.641H28.514a2.135,2.135,0,0,1,2.133,2.133Zm1.968,13.1h0a.493.493,0,0,1-.492.492H25.5l-2.3-3.445,2.3-3.445h6.648a1.471,1.471,0,0,0,.472-.084Zm-.492-7.383h-.492v-.984h.492a.492.492,0,0,1,0,.984Z" transform="translate(0 -28.499)" fill="#fff"/>
    </g>
  </g>
  <g id="Group_173" data-name="Group 173" transform="translate(25.396 17.062)">
    <g id="Group_172" data-name="Group 172">
      <path id="Path_553" data-name="Path 553" d="M388.8,288.493a1.8,1.8,0,1,0,1.8,1.8A1.807,1.807,0,0,0,388.8,288.493Zm0,2.625a.82.82,0,1,1,.82-.82A.821.821,0,0,1,388.8,291.118Z" transform="translate(-386.999 -288.493)" fill="#fff"/>
    </g>
  </g>
</svg>
