<svg id="twitter-logo-button" xmlns="http://www.w3.org/2000/svg" width="25.514" height="25.514" viewBox="0 0 25.514 25.514">
  <g id="Group_39" data-name="Group 39">
    <path id="Path_53" data-name="Path 53" d="M12.757,0A12.757,12.757,0,1,0,25.514,12.757,12.771,12.771,0,0,0,12.757,0Zm5.691,9.837c.006.126.009.254.009.381A8.352,8.352,0,0,1,5.6,17.253a5.929,5.929,0,0,0,4.347-1.216A2.939,2.939,0,0,1,7.205,14a2.948,2.948,0,0,0,1.326-.049,2.937,2.937,0,0,1-2.355-2.879c0-.012,0-.025,0-.037a2.924,2.924,0,0,0,1.329.367A2.941,2.941,0,0,1,6.6,7.479a8.337,8.337,0,0,0,6.052,3.069,2.938,2.938,0,0,1,5-2.679,5.861,5.861,0,0,0,1.865-.713,2.949,2.949,0,0,1-1.293,1.625,5.837,5.837,0,0,0,1.686-.462A5.906,5.906,0,0,1,18.448,9.837Z" fill="#ee964b"/>
  </g>
</svg>
