<svg xmlns="http://www.w3.org/2000/svg" xmlns:xlink="http://www.w3.org/1999/xlink" width="100.607" height="100.258" viewBox="0 0 100.607 100.258">
  <defs>
    <filter id="Path_499" x="3.837" y="5.305" width="30.907" height="30.907" filterUnits="userSpaceOnUse">
      <feOffset dy="1" input="SourceAlpha"/>
      <feGaussianBlur stdDeviation="2" result="blur"/>
      <feFlood flood-opacity="0.2"/>
      <feComposite operator="in" in2="blur"/>
      <feComposite in="SourceGraphic"/>
    </filter>
    <filter id="Path_499-2" x="0" y="21.905" width="21.55" height="21.55" filterUnits="userSpaceOnUse">
      <feOffset dy="1" input="SourceAlpha"/>
      <feGaussianBlur stdDeviation="2" result="blur-2"/>
      <feFlood flood-opacity="0.2"/>
      <feComposite operator="in" in2="blur-2"/>
      <feComposite in="SourceGraphic"/>
    </filter>
  </defs>
  <g id="Group_294" data-name="Group 294" transform="translate(3.293)">
    <circle id="Ellipse_11" data-name="Ellipse 11" cx="47.161" cy="47.161" r="47.161" transform="translate(2.009 4.811)" fill="#9d4fa5" opacity="0.13"/>
    <g id="Group_80" data-name="Group 80" transform="translate(1.004 3.817)">
      <path id="Path_496" data-name="Path 496" d="M184.5,240.855A48.155,48.155,0,1,0,232.655,192.7,48.155,48.155,0,0,0,184.5,240.855Zm93.563,0a45.412,45.412,0,1,1-13.3-32.1A45.065,45.065,0,0,1,278.063,240.855Z" transform="translate(-184.5 -192.7)" fill="#9d4fa5"/>
    </g>
    <g id="Group_81" data-name="Group 81" transform="translate(81.901 76.792)" opacity="0.3">
      <path id="Path_497" data-name="Path 497" d="M909.2,846.468a1.1,1.1,0,0,0,0,1.563l4.333,4.333A1.106,1.106,0,0,0,915.1,850.8l-4.333-4.333A1.119,1.119,0,0,0,909.2,846.468Z" transform="translate(-908.875 -846.15)" fill="#9d4fa5"/>
    </g>
    <g id="Group_82" data-name="Group 82" transform="translate(76.441 85.399)">
      <rect id="Rectangle_27" data-name="Rectangle 27" width="0.882" height="8.164" transform="translate(6.396 5.772) rotate(135)" fill="#9d4fa5"/>
      <rect id="Rectangle_28" data-name="Rectangle 28" width="0.882" height="1.642" transform="translate(8.465 7.836) rotate(135)" fill="#9d4fa5"/>
      <rect id="Rectangle_29" data-name="Rectangle 29" width="0.882" height="8.164" transform="translate(14.857 14.235) rotate(135)" fill="#9d4fa5"/>
    </g>
    <rect id="Rectangle_30" data-name="Rectangle 30" width="1.005" height="18.751" transform="translate(82.658 97.164) rotate(135)" fill="#9d4fa5" opacity="0.3"/>
    <g id="Group_83" data-name="Group 83" transform="translate(12.175)" opacity="0.3">
      <path id="Path_498" data-name="Path 498" d="M286.722,158.9a1.287,1.287,0,1,0-1.82,1.82l5.059,5.059a1.287,1.287,0,0,0,1.82-1.82Z" transform="translate(-284.525 -158.525)" fill="#9d4fa5"/>
    </g>
    <g id="Group_84" data-name="Group 84" transform="translate(6.543 10.305)">
      <g transform="matrix(1, 0, 0, 1, -9.84, -10.31)" filter="url(#Path_499)">
        <path id="Path_499-3" data-name="Path 499" d="M234.737,251.437a2.157,2.157,0,0,0,0,3.06L249.31,269.07a2.164,2.164,0,0,0,3.06-3.06L237.8,251.437A2.157,2.157,0,0,0,234.737,251.437Z" transform="translate(-224.26 -240.49)" fill="#9d4fa5"/>
      </g>
    </g>
    <g id="Group_86" data-name="Group 86" transform="translate(2.707 26.905)">
      <g transform="matrix(1, 0, 0, 1, -6, -26.9)" filter="url(#Path_499-2)">
        <path id="Path_499-4" data-name="Path 499" d="M234.422,251.121a1.089,1.089,0,0,0,0,1.546l7.361,7.361a1.093,1.093,0,1,0,1.546-1.546l-7.361-7.361A1.089,1.089,0,0,0,234.422,251.121Z" transform="translate(-228.1 -223.9)" fill="#9d4fa5"/>
      </g>
    </g>
    <g id="Group_85" data-name="Group 85" transform="translate(0 12.117)" opacity="0.3">
      <rect id="Rectangle_31" data-name="Rectangle 31" width="1.061" height="11.659" transform="translate(8.994 8.244) rotate(135)" fill="#9d4fa5"/>
      <rect id="Rectangle_32" data-name="Rectangle 32" width="11.659" height="1.061" transform="translate(17.584 18.326) rotate(-135)" fill="#9d4fa5"/>
    </g>
  </g>
</svg>
