<svg xmlns="http://www.w3.org/2000/svg" xmlns:xlink="http://www.w3.org/1999/xlink" width="1521" height="276" viewBox="0 0 1521 276">
  <defs>
    <clipPath id="clip-path">
      <path id="Rectangle_152" data-name="Rectangle 152" d="M2,0H1417a2,2,0,0,1,2,2V276a0,0,0,0,1,0,0H0a0,0,0,0,1,0,0V2A2,2,0,0,1,2,0Z" transform="translate(10136 10262)" fill="#73337a"/>
    </clipPath>
    <linearGradient id="linear-gradient" x1="0.5" y1="0.322" x2="0.678" y2="1.169" gradientUnits="objectBoundingBox">
      <stop offset="0" stop-color="#9d4fa5"/>
      <stop offset="1" stop-color="#73337a"/>
    </linearGradient>
    <filter id="Path_578" x="-646.553" y="-71.772" width="2466.061" height="1219.496" filterUnits="userSpaceOnUse">
      <feOffset dy="1" input="SourceAlpha"/>
      <feGaussianBlur stdDeviation="6" result="blur"/>
      <feFlood flood-opacity="0.059"/>
      <feComposite operator="in" in2="blur"/>
      <feComposite in="SourceGraphic"/>
    </filter>
    <filter id="Path_577" x="-70.134" y="-114.987" width="1463.224" height="711.925" filterUnits="userSpaceOnUse">
      <feOffset dy="1" input="SourceAlpha"/>
      <feGaussianBlur stdDeviation="6" result="blur-2"/>
      <feFlood flood-opacity="0.059"/>
      <feComposite operator="in" in2="blur-2"/>
      <feComposite in="SourceGraphic"/>
    </filter>
    <clipPath id="clip-path-3">
      <path id="Rectangle_150" data-name="Rectangle 150" d="M2,0H1519a2,2,0,0,1,2,2V276a0,0,0,0,1,0,0H0a0,0,0,0,1,0,0V2A2,2,0,0,1,2,0Z" transform="translate(10136 10262)" fill="#73337a"/>
    </clipPath>
    <filter id="Path_576" x="-1164.213" y="-690.03" width="2909.468" height="1584.107" filterUnits="userSpaceOnUse">
      <feOffset dy="1" input="SourceAlpha"/>
      <feGaussianBlur stdDeviation="6" result="blur-3"/>
      <feFlood flood-opacity="0.059"/>
      <feComposite operator="in" in2="blur-3"/>
      <feComposite in="SourceGraphic"/>
    </filter>
    <filter id="Path_575" x="223.91" y="-318.938" width="1463.224" height="711.925" filterUnits="userSpaceOnUse">
      <feOffset dy="1" input="SourceAlpha"/>
      <feGaussianBlur stdDeviation="6" result="blur-4"/>
      <feFlood flood-opacity="0.059"/>
      <feComposite operator="in" in2="blur-4"/>
      <feComposite in="SourceGraphic"/>
    </filter>
  </defs>
  <g id="Group_356" data-name="Group 356" transform="translate(-10037 -10262)" opacity="0.95">
    <path id="Rectangle_149" data-name="Rectangle 149" d="M2,0H1417a2,2,0,0,1,2,2V276a0,0,0,0,1,0,0H0a0,0,0,0,1,0,0V2A2,2,0,0,1,2,0Z" transform="translate(10136 10262)" fill="#73337a"/>
    <g id="Mask_Group_16" data-name="Mask Group 16" transform="translate(21691 20800) rotate(180)" opacity="0.33" clip-path="url(#clip-path)">
      <g transform="matrix(-1, 0, 0, -1, 11654, 10538)" filter="url(#Path_578)">
        <path id="Path_578-2" data-name="Path 578" d="M10278.91,11101.563s1592.955,27,2128.441-805.477,144,144,144,144l67.5,598.484Z" transform="translate(12252.68 10865.81) rotate(179)" fill="url(#linear-gradient)"/>
      </g>
    </g>
    <g id="Mask_Group_15" data-name="Mask Group 15" transform="translate(21691 20800) rotate(180)" opacity="0.33" clip-path="url(#clip-path)">
      <g transform="matrix(-1, 0, 0, -1, 11654, 10538)" filter="url(#Path_577)">
        <path id="Path_577-2" data-name="Path 577" d="M10278.91,10635.928s943.165,15.986,1260.219-476.911,85.259,85.258,85.259,85.258l39.964,354.354Z" transform="translate(11654 10538) rotate(180)" fill="url(#linear-gradient)"/>
      </g>
    </g>
    <g id="Mask_Group_14" data-name="Mask Group 14" transform="translate(-99)" opacity="0.33" clip-path="url(#clip-path-3)">
      <g transform="matrix(1, 0, 0, 1, 10136, 10262)" filter="url(#Path_576)">
        <path id="Path_576-2" data-name="Path 576" d="M10278.91,11271.652s1830.314,31.025,2445.592-925.5,165.455,165.452,165.455,165.452l77.557,687.662Z" transform="translate(-12254.08 -9457.93) rotate(-5)" fill="url(#linear-gradient)"/>
      </g>
    </g>
    <g id="Mask_Group_13" data-name="Mask Group 13" opacity="0.33" clip-path="url(#clip-path)">
      <g transform="matrix(1, 0, 0, 1, 10037, 10262)" filter="url(#Path_575)">
        <path id="Path_575-2" data-name="Path 575" d="M10278.91,10635.928s943.165,15.986,1260.219-476.911,85.259,85.258,85.259,85.258l39.964,354.354Z" transform="translate(-10037 -10262)" fill="url(#linear-gradient)"/>
      </g>
    </g>
  </g>
</svg>
