<svg xmlns="http://www.w3.org/2000/svg" width="31.246" height="27.628" viewBox="0 0 31.246 27.628">
  <g id="speaker" transform="translate(0 -3.013)">
    <path id="Path_568" data-name="Path 568" d="M16.152,3.013a1.836,1.836,0,0,0-.948.267.558.558,0,0,0-.078.056L6.987,10.22H.6a.6.6,0,0,0-.6.6V22.232a.6.6,0,0,0,.6.6H6.973L15.107,30.3a.586.586,0,0,0,.1.072,1.836,1.836,0,0,0,.948.267,1.883,1.883,0,0,0,1.865-1.9V4.908A1.882,1.882,0,0,0,16.152,3.013ZM7.808,21.631a.6.6,0,0,1-1.2,0v-2.4a.6.6,0,0,1,1.2,0Zm0-7.808a.6.6,0,0,1-1.2,0v-2.4a.6.6,0,0,1,1.2,0Z" fill="#fff"/>
    <path id="Path_569" data-name="Path 569" d="M38.269,7.045a.6.6,0,0,0-.386,1.138A10.5,10.5,0,0,1,37.9,28.067a.6.6,0,0,0,.194,1.169.592.592,0,0,0,.194-.032,11.7,11.7,0,0,0-.016-22.159Z" transform="translate(-14.968 -1.598)" fill="#fff"/>
    <path id="Path_570" data-name="Path 570" d="M38.622,20.32a8.144,8.144,0,0,0-5.855-7.785.6.6,0,0,0-.333,1.154,6.9,6.9,0,0,1,0,13.261.6.6,0,0,0,.166,1.178.611.611,0,0,0,.166-.023A8.143,8.143,0,0,0,38.622,20.32Z" transform="translate(-12.781 -3.794)" fill="#fff"/>
  </g>
</svg>
