<svg xmlns="http://www.w3.org/2000/svg" xmlns:xlink="http://www.w3.org/1999/xlink" width="351.116" height="395.705" viewBox="0 0 351.116 395.705">
  <defs>
    <filter id="Rectangle_85" x="0" y="0" width="351.116" height="395.705" filterUnits="userSpaceOnUse">
      <feOffset dy="2" input="SourceAlpha"/>
      <feGaussianBlur stdDeviation="6.5" result="blur"/>
      <feFlood flood-opacity="0.102"/>
      <feComposite operator="in" in2="blur"/>
      <feComposite in="SourceGraphic"/>
    </filter>
    <filter id="Rectangle_87" x="0" y="0" width="351.116" height="395.705" filterUnits="userSpaceOnUse">
      <feOffset dy="2" input="SourceAlpha"/>
      <feGaussianBlur stdDeviation="6.5" result="blur-2"/>
      <feFlood flood-opacity="0.102"/>
      <feComposite operator="in" in2="blur-2"/>
      <feComposite in="SourceGraphic"/>
    </filter>
    <filter id="Rectangle_88" x="0" y="0" width="351.116" height="395.705" filterUnits="userSpaceOnUse">
      <feOffset dy="2" input="SourceAlpha"/>
      <feGaussianBlur stdDeviation="6.5" result="blur-3"/>
      <feFlood flood-opacity="0.102"/>
      <feComposite operator="in" in2="blur-3"/>
      <feComposite in="SourceGraphic"/>
    </filter>
    <radialGradient id="radial-gradient" cx="0.5" cy="0.5" r="0.845" gradientTransform="matrix(1.143, 0, 0, 1.143, -0.071, -0.071)" gradientUnits="objectBoundingBox">
      <stop offset="0" stop-color="#00cf07"/>
      <stop offset="1" stop-color="#00cf20"/>
    </radialGradient>
    <filter id="Rectangle_86" x="0" y="0" width="351.116" height="395.705" filterUnits="userSpaceOnUse">
      <feOffset dy="2" input="SourceAlpha"/>
      <feGaussianBlur stdDeviation="6.5" result="blur-4"/>
      <feFlood flood-opacity="0.102"/>
      <feComposite operator="in" in2="blur-4"/>
      <feComposite in="SourceGraphic"/>
    </filter>
    <clipPath id="clip-path">
      <g transform="matrix(1, 0, 0, 1, 0, 0)" filter="url(#Rectangle_85)">
        <rect id="Rectangle_85-2" data-name="Rectangle 85" width="312.117" height="356.705" rx="2" fill="#0d3b66"/>
      </g>
    </clipPath>
    <linearGradient id="linear-gradient" x1="0.633" y1="-0.025" x2="0.506" y2="0.659" gradientUnits="objectBoundingBox">
      <stop offset="0" stop-color="#00ff27"/>
      <stop offset="1" stop-color="#00cf20"/>
    </linearGradient>
    <filter id="Path_516" x="-102.201" y="67.549" width="657.131" height="402.164" filterUnits="userSpaceOnUse">
      <feOffset dy="1" input="SourceAlpha"/>
      <feGaussianBlur stdDeviation="4" result="blur-5"/>
      <feFlood flood-opacity="0.2"/>
      <feComposite operator="in" in2="blur-5"/>
      <feComposite in="SourceGraphic"/>
    </filter>
    <linearGradient id="linear-gradient-2" x1="0.598" y1="-0.579" x2="0.5" y2="0.644" xlink:href="#linear-gradient"/>
    <linearGradient id="linear-gradient-3" x1="0.546" y1="0.954" x2="0.362" y2="0.162" xlink:href="#linear-gradient"/>
  </defs>
  <g id="Group_277" data-name="Group 277" transform="translate(-21282.699 469.647)" opacity="0.5">
    <g transform="matrix(1, 0, 0, 1, 21282.7, -469.65)" filter="url(#Rectangle_86)">
      <rect id="Rectangle_86-2" data-name="Rectangle 86" width="312.117" height="356.705" rx="2" transform="translate(19.5 17.5)" fill="url(#radial-gradient)"/>
    </g>
    <g id="Mask_Group_6" data-name="Mask Group 6" transform="translate(21302.199 -452.147)" clip-path="url(#clip-path)">
      <g transform="matrix(1, 0, 0, 1, -19.5, -17.5)" filter="url(#Path_516)">
        <path id="Path_516-2" data-name="Path 516" d="M.56,0s232.131,217.016,489.5,56.578S444.15,278.422,444.15,278.422L0,279.322Z" transform="matrix(0.98, -0.17, 0.17, 0.98, -90.2, 181.63)" fill="url(#linear-gradient)"/>
      </g>
    </g>
    <g id="Mask_Group_7" data-name="Mask Group 7" transform="translate(21302.199 -452.147)" clip-path="url(#clip-path)">
      <path id="Path_517" data-name="Path 517" d="M276,809s185.319,143.81,390.145,38.067-36.228,146.629-36.228,146.629H276Z" transform="translate(-310.835 -590.466)" fill="url(#linear-gradient-2)"/>
    </g>
    <g id="Mask_Group_8" data-name="Mask Group 8" transform="translate(21302.199 -452.147)" clip-path="url(#clip-path)">
      <path id="Path_518" data-name="Path 518" d="M151.343,1392.919s145.768-214.737,439.448-158.342-96.464-126.891-96.464-126.891-337.625,5.423-342.984,5.423S99.9,1262.775,106.327,1284.466,151.343,1392.919,151.343,1392.919Z" transform="translate(-218.977 -1160.294)" fill="url(#linear-gradient-3)"/>
    </g>
  </g>
</svg>
