<svg xmlns="http://www.w3.org/2000/svg" width="24.884" height="29.116" viewBox="0 0 24.884 29.116">
  <path id="home" d="M42.188,14.44a.705.705,0,0,0-.705.705v12.56H33.918V19.821a.705.705,0,0,0-.705-.705H27.69a.705.705,0,0,0-.705.705v6.252a.705.705,0,1,0,1.41,0V20.526h4.113v7.18H19.42V10.449L30.452,1.608l11.3,9.052a.705.705,0,1,0,.882-1.1L30.893.154a.7.7,0,0,0-.882,0L18.274,9.56a.7.7,0,0,0-.264.55v18.3a.705.705,0,0,0,.705.705H42.188a.705.705,0,0,0,.705-.705V15.145A.7.7,0,0,0,42.188,14.44Z" transform="translate(-18.01 0)" fill="#fff"/>
</svg>
