<svg xmlns="http://www.w3.org/2000/svg" width="25.738" height="25.738" viewBox="0 0 25.738 25.738">
  <g id="instagram-logo" opacity="0.5">
    <g id="Group_41" data-name="Group 41">
      <g id="Group_40" data-name="Group 40">
        <path id="Path_54" data-name="Path 54" d="M22.432,25.009a2.572,2.572,0,1,0-2.575-2.577A2.58,2.58,0,0,0,22.432,25.009Z" transform="translate(-9.564 -9.563)" fill="#fff"/>
        <path id="Path_55" data-name="Path 55" d="M33.372,16.441V13.96h-.323l-2.158.007.008,2.481Z" transform="translate(-14.878 -6.724)" fill="#fff"/>
        <path id="Path_56" data-name="Path 56" d="M12.869,0A12.869,12.869,0,1,0,25.738,12.869,12.884,12.884,0,0,0,12.869,0Zm7.319,11.367V17.36a2.832,2.832,0,0,1-2.829,2.829H8.379A2.831,2.831,0,0,1,5.55,17.36V8.379A2.831,2.831,0,0,1,8.379,5.551h8.98a2.832,2.832,0,0,1,2.829,2.829Z" fill="#fff"/>
        <path id="Path_57" data-name="Path 57" d="M23.354,23.431a4,4,0,1,1-7.712-1.5H13.457v5.992a1.4,1.4,0,0,0,1.4,1.4h8.98a1.4,1.4,0,0,0,1.4-1.4V21.929H23.056A3.948,3.948,0,0,1,23.354,23.431Z" transform="translate(-6.481 -10.562)" fill="#fff"/>
      </g>
    </g>
  </g>
</svg>
