<svg id="money_1_" data-name="money (1)" xmlns="http://www.w3.org/2000/svg" width="30.213" height="29.859" viewBox="0 0 30.213 29.859">
  <g id="Group_178" data-name="Group 178" transform="translate(17.7 14.941)">
    <g id="Group_177" data-name="Group 177">
      <path id="Path_554" data-name="Path 554" d="M302.432,260.459a1.135,1.135,0,1,1,1.3-1.124.59.59,0,0,0,1.18,0,2.348,2.348,0,0,0-1.888-2.237v-.307a.59.59,0,1,0-1.18,0v.307a2.348,2.348,0,0,0-1.888,2.237,2.4,2.4,0,0,0,2.478,2.3,1.135,1.135,0,1,1-1.3,1.124.59.59,0,1,0-1.18,0A2.348,2.348,0,0,0,301.842,265v.255a.59.59,0,1,0,1.18,0V265a2.348,2.348,0,0,0,1.888-2.237A2.4,2.4,0,0,0,302.432,260.459Z" transform="translate(-299.954 -256.201)" fill="#fff"/>
    </g>
  </g>
  <g id="Group_180" data-name="Group 180" transform="translate(22.655 12.851)">
    <g id="Group_179" data-name="Group 179">
      <path id="Path_555" data-name="Path 555" d="M387.911,223.623a7.688,7.688,0,0,0-3.141-2.779.59.59,0,0,0-.511,1.064,6.5,6.5,0,0,1,2.926,8.9.59.59,0,1,0,1.042.554,7.68,7.68,0,0,0-.316-7.737Z" transform="translate(-383.924 -220.785)" fill="#fff"/>
    </g>
  </g>
  <g id="Group_182" data-name="Group 182" transform="translate(20.476 12.156)">
    <g id="Group_181" data-name="Group 181">
      <path id="Path_556" data-name="Path 556" d="M347.63,209h-.04a.59.59,0,0,0,0,1.18h.037a.59.59,0,0,0,0-1.18Z" transform="translate(-347 -209.001)" fill="#fff"/>
    </g>
  </g>
  <g id="Group_184" data-name="Group 184" transform="translate(12.51 15.915)">
    <g id="Group_183" data-name="Group 183">
      <path id="Path_557" data-name="Path 557" d="M216.865,282.477a6.5,6.5,0,0,1-2.926-8.9.59.59,0,0,0-1.042-.554,7.675,7.675,0,0,0,3.456,10.516.59.59,0,1,0,.511-1.064Z" transform="translate(-212.002 -272.711)" fill="#fff"/>
    </g>
  </g>
  <g id="Group_186" data-name="Group 186" transform="translate(18.669 26.318)">
    <g id="Group_185" data-name="Group 185">
      <path id="Path_558" data-name="Path 558" d="M317,449h-.034a.59.59,0,1,0-.005,1.18H317a.59.59,0,1,0,0-1.18Z" transform="translate(-316.378 -448.999)" fill="#fff"/>
    </g>
  </g>
  <g id="Group_188" data-name="Group 188" transform="translate(0 0)">
    <g id="Group_187" data-name="Group 187">
      <path id="Path_559" data-name="Path 559" d="M22.861,13.159a2.709,2.709,0,0,0-.262-.482h1.536a2.714,2.714,0,0,0,0-5.429H19.409A2.713,2.713,0,0,0,17.172,3H2.714a2.714,2.714,0,1,0,0,5.429H7.44a2.707,2.707,0,0,0,0,3.068H5.9a2.713,2.713,0,0,0-1.687,4.839,2.71,2.71,0,0,0,0,4.249,2.71,2.71,0,0,0,0,4.249A2.713,2.713,0,0,0,5.9,29.672h6.954A10.029,10.029,0,1,0,22.861,13.159Zm1.274-4.731a1.534,1.534,0,0,1,0,3.068H9.678a1.534,1.534,0,0,1,0-3.068ZM2.714,7.249a1.534,1.534,0,1,1,0-3.068H17.172a1.534,1.534,0,0,1,0,3.068ZM5.9,12.678H20.358a1.533,1.533,0,0,1,.669.154c-.279-.023-.561-.036-.846-.036a10,10,0,0,0-7.1,2.95H5.9a1.534,1.534,0,1,1,0-3.068Zm0,4.249h6.173a10,10,0,0,0-1.517,3.068H5.9a1.534,1.534,0,1,1,0-3.068Zm0,4.249h4.386a10.04,10.04,0,0,0-.036,3.068H5.9a1.534,1.534,0,1,1,0-3.068Zm0,7.317a1.534,1.534,0,1,1,0-3.068h4.59a9.992,9.992,0,0,0,1.416,3.068Zm14.28,3.187a8.851,8.851,0,1,1,8.851-8.851A8.861,8.861,0,0,1,20.181,31.679Z" transform="translate(0 -3)" fill="#fff"/>
    </g>
  </g>
</svg>
