<svg xmlns="http://www.w3.org/2000/svg" width="25.3" height="25.3" viewBox="0 0 25.3 25.3">
  <path id="Subtraction_4" data-name="Subtraction 4" d="M12.65,25.3A12.65,12.65,0,1,1,25.3,12.65,12.664,12.664,0,0,1,12.65,25.3ZM7.25,13.843h0l4.519,1.528a2.408,2.408,0,0,0,4.727-.912L18.326,12.9a2.711,2.711,0,1,0-3.613-2.559c0,.029,0,.059,0,.088l0,.029-.654,1.981a2.4,2.4,0,0,0-1.662.712L8.038,11.679a2.126,2.126,0,1,0-.789,2.165Zm6.5,2.806a1.6,1.6,0,0,1-1.538-1.131l.969.328a1.172,1.172,0,0,0,1.585-.477,1.165,1.165,0,0,0-.478-1.58l-.9-.3a1.6,1.6,0,1,1,.362,3.164ZM6,13.633a1.484,1.484,0,1,1,1.3-2.2l-.467-.158a1.173,1.173,0,0,0-1.586.477,1.166,1.166,0,0,0,.479,1.58l.708.239A1.506,1.506,0,0,1,6,13.633Zm11.424-1.179a2.1,2.1,0,1,1,2.114-2.1A2.112,2.112,0,0,1,17.425,12.454Zm0-3.6a1.5,1.5,0,1,0,1.51,1.5A1.509,1.509,0,0,0,17.424,8.855Z" fill="#ee964b"/>
</svg>
