<svg xmlns="http://www.w3.org/2000/svg" width="24.884" height="22.603" viewBox="0 0 24.884 22.603">
  <g id="support" transform="translate(0 0)" opacity="0.5">
    <g id="Group_32" data-name="Group 32" transform="translate(22.725 14.837)">
      <g id="Group_31" data-name="Group 31">
        <path id="Path_39" data-name="Path 39" d="M469.6,330.069l-1.186-1.177a.486.486,0,0,0-.685.69l1.186,1.177a.486.486,0,0,0,.685-.69Z" transform="translate(-467.587 -328.751)" fill="#fff"/>
      </g>
    </g>
    <g id="Group_34" data-name="Group 34" transform="translate(21.514 13.632)">
      <g id="Group_33" data-name="Group 33">
        <path id="Path_40" data-name="Path 40" d="M443.505,304.094a.486.486,0,0,0-.687,0h0a.486.486,0,1,0,.688,0Z" transform="translate(-442.675 -303.952)" fill="#fff"/>
      </g>
    </g>
    <g id="Group_36" data-name="Group 36" transform="translate(0 0)">
      <g id="Group_35" data-name="Group 35" transform="translate(0)">
        <path id="Path_41" data-name="Path 41" d="M18.2,39.478l4.716-4.716a1.831,1.831,0,0,0-.883-3.079,1.832,1.832,0,0,0-1.35-2.577,1.829,1.829,0,0,0-1.427-2.378,1.833,1.833,0,0,0-2.614-2.185l-.047-.05a3.244,3.244,0,0,0-2.367-1.031H10.41a.486.486,0,0,0-.486.486v.637a2.208,2.208,0,0,0,.126.737A1.832,1.832,0,0,0,7.608,27.59a1.832,1.832,0,0,0-1.429,2.378A1.832,1.832,0,0,0,4.83,32.544a1.832,1.832,0,0,0-.884,3.08l.97.97L.142,41.368a.486.486,0,1,0,.687.688l4.82-4.82a1.831,1.831,0,0,0,2.734-1.667l.074,0a1.83,1.83,0,0,0,1.832-1.831c0-.025,0-.049,0-.074l.073,0a1.83,1.83,0,0,0,1.832-1.831c0-.025,0-.049,0-.074l.073,0a1.831,1.831,0,0,0,1.417-2.992l3.227-3.227a.86.86,0,1,1,1.216,1.216l-.476.476-1.726,1.726a.486.486,0,1,0,.687.688l1.726-1.726A.86.86,0,1,1,19.55,29.14l-.476.476-1.25,1.25a.486.486,0,1,0,.687.688l1.25-1.25a.86.86,0,1,1,1.216,1.216l-.653.653-.6.6a.486.486,0,1,0,.687.688l.6-.6a.86.86,0,0,1,1.215,1.216L17.512,38.79a6.585,6.585,0,0,1-4.431,1.93.486.486,0,0,0-.327.143L8.4,45.236a.486.486,0,1,0,.689.686l3.2-3.216a4.518,4.518,0,0,0,2.744.706l2.508,2.508a.486.486,0,0,0,.687-.687l-2.666-2.667a.486.486,0,0,0-.383-.141l-.154.013A3.548,3.548,0,0,1,13,42l.312-.314A7.553,7.553,0,0,0,18.2,39.478ZM7.163,36.25a.859.859,0,0,1-1.216,0L4.634,34.937a.86.86,0,1,1,1.216-1.216l1.313,1.313A.861.861,0,0,1,7.163,36.25Zm1.9-1.9a.861.861,0,0,1-1.216,0L6.537,33.034l-.653-.653A.86.86,0,1,1,7.1,31.165l1.967,1.967h0a.86.86,0,0,1,0,1.216Zm1.9-1.9a.861.861,0,0,1-1.216,0L7.311,30a.86.86,0,0,1,1.215-1.216L9.639,29.9l1.33,1.33h0a.86.86,0,0,1,0,1.216Zm1.9-1.9a.861.861,0,0,1-1.216,0L9.214,28.1h0l-.475-.475a.86.86,0,0,1,1.216-1.216l2.918,2.918a.86.86,0,0,1,0,1.216ZM13,28.078l-1.335-1.335a2.224,2.224,0,0,0,.465.049h.011l1.334-.006a.486.486,0,0,0,0-.972h0l-1.334.006H12.13A1.235,1.235,0,0,1,10.9,24.585v-.151h3.331a2.269,2.269,0,0,1,1.655.721l.02.021Z" transform="translate(0 -23.462)" fill="#fff"/>
      </g>
    </g>
  </g>
</svg>
